<?xml version="1.0" standalone="no"?>
<!DOCTYPE svg PUBLIC "-//W3C//DTD SVG 20010904//EN"
 "http://www.w3.org/TR/2001/REC-SVG-20010904/DTD/svg10.dtd">
<svg version="1.0" xmlns="http://www.w3.org/2000/svg"
 width="612.000000pt" height="612.000000pt" viewBox="0 0 612.000000 612.000000"
 preserveAspectRatio="xMidYMid meet">
<metadata>
Created by potrace 1.16, written by Peter Selinger 2001-2019
</metadata>
<g transform="translate(0.000000,612.000000) scale(0.100000,-0.100000)"
fill="#000000" stroke="none">
<path d="M3742 5653 c-19 -9 -59 -46 -90 -81 -32 -36 -90 -99 -130 -140 -41
-41 -102 -118 -137 -171 -35 -53 -76 -109 -90 -126 -15 -16 -34 -42 -43 -57
-9 -16 -20 -28 -23 -28 -4 0 -13 26 -20 57 -9 39 -24 69 -45 93 -30 32 -36 34
-100 36 -38 1 -97 5 -130 8 -55 4 -62 3 -67 -15 -3 -11 -11 -17 -19 -14 -7 3
-20 -8 -30 -26 -10 -16 -22 -28 -27 -25 -22 14 -17 -24 6 -49 34 -36 60 -106
78 -210 8 -47 28 -118 44 -158 46 -114 55 -167 47 -291 -3 -61 -11 -129 -16
-151 -30 -122 -31 -163 -10 -291 11 -68 20 -126 20 -129 0 -2 15 10 33 28 68
68 68 68 61 -15 -6 -64 -4 -76 10 -81 14 -5 16 3 17 56 0 94 9 146 31 183 11
19 21 34 21 34 1 0 2 -62 2 -138 1 -127 2 -140 23 -166 12 -16 22 -37 22 -46
0 -10 7 -23 15 -30 9 -7 14 -19 11 -27 -6 -15 13 -63 25 -63 12 0 20 33 9 40
-7 4 -7 14 -1 31 10 24 10 24 10 2 1 -28 11 -29 34 -3 9 11 14 20 12 20 -3 0
3 10 15 22 11 12 20 28 20 35 0 7 3 13 8 13 4 0 16 16 27 36 10 19 32 46 48
60 16 13 23 24 17 24 -6 0 -8 5 -4 12 5 8 2 9 -9 5 -10 -4 -25 -9 -34 -12 -16
-5 -15 -4 1 7 80 55 106 96 131 203 2 6 6 28 10 50 6 33 5 38 -6 28 -22 -21
-30 -15 -14 10 8 13 12 26 9 30 -3 3 3 3 14 0 11 -3 23 -16 27 -30 4 -16 11
-23 20 -19 10 3 12 0 8 -11 -4 -9 16 6 44 33 28 27 85 81 127 119 42 39 86 79
99 90 12 12 47 49 78 83 31 34 59 58 63 55 3 -3 6 -1 6 5 0 7 12 24 28 39 15
16 32 35 37 44 6 9 29 44 53 77 42 61 51 78 32 67 -16 -10 -12 7 9 42 17 27
18 34 6 50 -13 17 -14 17 -28 -1 -13 -18 -14 -18 -13 11 0 17 5 31 10 30 5 -1
18 16 30 38 26 50 25 49 31 43 3 -2 -4 -23 -15 -46 -23 -48 -25 -62 -7 -62 20
0 38 39 53 109 17 78 18 111 4 111 -5 0 -10 -9 -10 -19 0 -11 -4 -23 -10 -26
-5 -3 -10 1 -10 9 0 9 -4 16 -8 16 -5 0 -21 17 -35 37 -20 28 -24 40 -15 50 8
11 7 12 -6 7 -10 -4 -16 -2 -14 4 2 6 -6 18 -17 27 -16 13 -16 16 -3 11 21 -6
32 22 20 55 l-9 23 -31 -30 c-42 -43 -58 -105 -42 -167 8 -34 9 -52 2 -59 -7
-7 -4 -17 10 -32 22 -24 42 -56 33 -56 -3 0 -22 16 -42 35 -20 19 -42 35 -48
35 -5 0 -20 3 -32 6 -14 4 -23 2 -23 -5 0 -24 -144 -240 -196 -293 -64 -66
-65 -59 15 -152 55 -64 52 -71 -6 -14 -56 53 -113 87 -113 65 0 -40 -37 -126
-90 -206 -65 -100 -94 -121 -135 -103 -14 7 -43 12 -63 13 l-37 0 41 18 c22
10 60 42 85 71 24 28 65 76 92 104 35 40 65 92 118 210 40 88 68 164 65 173
-4 9 1 21 9 27 16 11 21 28 49 146 8 30 17 63 21 73 4 9 4 25 0 34 -5 15 -10
13 -36 -16 -16 -19 -29 -42 -29 -51 0 -10 -6 -23 -14 -30 -8 -6 -12 -18 -9
-25 3 -8 -2 -22 -11 -31 -17 -16 -39 -16 -161 3 l-40 6 30 13 c17 7 46 14 65
14 l35 2 -30 13 -30 14 43 7 c63 10 59 21 -6 17 -45 -3 -53 -2 -39 7 9 6 15
15 12 21 -4 5 2 9 12 9 15 0 16 2 3 10 -13 8 -13 10 0 14 22 7 218 56 225 56
3 0 21 34 40 75 32 68 34 80 30 147 -4 63 -7 92 -14 131 0 4 -8 7 -17 7 -12 0
-15 6 -11 21 4 15 -1 22 -19 30 -34 12 -43 11 -82 -8z"/>
<path d="M2046 5603 c-18 -5 -57 -36 -47 -37 3 -1 -1 -17 -8 -36 -6 -19 -12
-37 -12 -40 -1 -13 -31 -20 -46 -12 -11 7 -21 6 -29 -3 -14 -13 -9 -62 15
-165 16 -69 14 -87 -11 -93 -31 -9 -13 -22 30 -23 21 -1 62 -2 92 -4 l55 -2
-50 -10 c-27 -5 -54 -14 -60 -20 -7 -8 -5 -9 7 -5 10 3 20 1 24 -5 4 -6 3 -8
-3 -5 -6 4 -19 0 -29 -7 -18 -14 -18 -15 0 -35 22 -24 53 -26 116 -7 25 7 81
17 125 21 44 3 91 13 105 20 l25 14 -32 1 c-25 0 -31 4 -27 15 5 12 -2 15 -32
16 -31 0 -35 2 -19 9 11 5 41 11 67 15 48 6 55 18 28 50 -9 11 -23 15 -42 11
-15 -3 -30 -1 -33 4 -3 6 4 10 17 10 42 0 69 12 66 29 -2 9 -8 16 -13 16 -15
0 -35 15 -35 26 0 6 5 7 10 4 6 -3 10 -1 10 4 0 6 -7 11 -17 11 -9 0 -14 3
-10 6 8 8 -30 44 -48 44 -17 0 -21 16 -5 22 12 4 -91 137 -106 138 -7 0 -14 7
-18 15 -5 15 -23 17 -60 8z"/>
<path d="M2300 5421 c0 -4 12 -27 28 -52 15 -24 33 -53 39 -64 13 -21 137
-272 194 -390 18 -38 34 -78 36 -87 1 -9 16 -45 33 -79 16 -35 30 -68 30 -76
0 -7 5 -13 10 -13 6 0 10 -8 10 -17 0 -10 10 -36 23 -58 12 -22 29 -59 36 -82
8 -24 20 -43 28 -43 7 0 13 5 13 10 0 6 -5 10 -11 10 -7 0 -9 10 -5 25 4 14 2
25 -3 25 -12 0 -21 93 -10 106 11 13 -9 23 -44 25 -15 0 -17 2 -7 6 36 14 40
24 20 53 -11 16 -20 37 -20 47 0 10 -5 24 -11 30 -8 8 -5 15 11 26 l22 15 -22
12 c-12 7 -35 9 -51 6 -16 -3 -29 -1 -29 4 0 6 6 10 13 10 7 0 14 11 15 25 1
14 -3 25 -9 25 -5 0 -7 5 -4 10 3 6 -1 13 -9 16 -12 5 -13 10 -4 24 7 10 17
16 23 12 5 -3 4 1 -2 10 -7 8 -11 17 -8 20 3 2 -10 3 -28 1 -30 -4 -31 -3 -13
11 11 9 25 16 32 16 7 0 16 5 20 12 4 6 3 8 -4 4 -6 -3 -14 -1 -18 5 -3 6 -19
9 -34 5 -32 -6 -44 2 -29 20 13 15 -30 64 -57 64 -14 1 -12 5 11 17 24 14 26
18 13 21 -10 2 -18 7 -18 11 0 4 -12 13 -26 19 -14 7 -22 16 -19 22 8 13 -31
50 -52 50 -16 0 -16 2 -3 10 13 9 11 14 -12 35 -16 13 -28 28 -28 33 0 13 -33
47 -52 55 -10 3 -18 3 -18 -2z"/>
<path d="M2413 5109 c-28 -10 -30 -19 -3 -12 12 3 20 0 20 -6 0 -7 -4 -9 -10
-6 -5 3 -10 1 -10 -4 0 -6 -3 -10 -7 -9 -5 1 -28 -1 -52 -5 -35 -6 -52 -3 -88
14 -77 37 -186 10 -199 -50 -3 -14 -10 -42 -16 -62 -15 -51 4 -121 63 -240 26
-53 60 -133 74 -178 15 -44 31 -81 37 -81 6 0 63 14 125 31 63 16 119 29 125
27 7 -3 -25 -15 -69 -27 -65 -19 -89 -31 -119 -62 l-37 -38 103 -112 c87 -93
105 -108 111 -92 6 13 8 14 9 3 1 -8 3 -20 4 -26 0 -6 29 -41 63 -77 41 -44
67 -64 80 -62 86 17 81 19 110 -43 14 -31 29 -58 34 -60 5 -2 9 -9 9 -15 0
-14 45 -37 71 -37 26 0 31 120 7 151 -10 12 -18 28 -18 36 0 8 -7 29 -16 46
-9 18 -21 40 -25 50 -5 9 -13 25 -18 35 -4 9 -15 31 -24 48 -9 17 -13 34 -10
38 4 4 3 10 -3 14 -15 11 -37 116 -24 120 5 2 10 8 10 13 0 6 -3 8 -8 5 -4 -2
-23 -1 -42 4 l-35 8 39 1 c30 1 37 4 32 17 -3 9 -6 18 -6 20 0 2 -8 4 -17 4
-15 0 -16 2 -3 10 13 9 13 11 0 20 -8 5 -19 11 -25 14 -5 2 -1 11 10 20 20 16
20 16 -3 22 -15 4 -19 10 -14 18 10 12 12 45 3 44 -3 0 -31 1 -61 2 l-55 2 54
10 c36 7 50 13 43 20 -6 6 -8 18 -5 27 4 11 1 10 -10 -4 -13 -16 -16 -17 -17
-4 0 8 6 21 12 27 8 8 9 15 3 20 -16 11 -41 47 -28 39 9 -6 10 -1 2 23 -9 23
-16 29 -32 25 -12 -2 -53 -7 -91 -10 -46 -5 -64 -10 -55 -16 9 -6 -6 -9 -43
-9 -32 0 -58 4 -58 10 0 5 -15 14 -32 19 -32 9 -32 9 -6 10 35 1 46 20 23 38
-14 9 -15 13 -4 13 11 0 12 2 0 9 -11 7 -11 10 0 17 17 11 229 22 222 12 -2
-5 -28 -8 -56 -8 -29 0 -59 -5 -67 -10 -12 -7 -8 -10 15 -10 31 0 75 -20 46
-20 -11 0 -12 -3 -4 -11 6 -6 35 -11 65 -12 48 -2 54 0 50 16 -3 12 -8 14 -16
8 -8 -7 -11 0 -10 22 1 18 -5 44 -13 60 -14 27 -14 27 -96 23 l-82 -5 75 10
c41 6 76 12 78 14 7 6 -39 95 -49 95 -6 0 -8 4 -4 9 8 15 -8 20 -32 10z"/>
<path d="M4755 4390 c-28 -4 -60 -12 -70 -18 -11 -7 -65 -28 -120 -48 -133
-48 -388 -176 -499 -250 -48 -32 -97 -63 -107 -69 -10 -5 -21 -17 -26 -26 -9
-19 -103 -99 -116 -99 -5 0 10 21 32 47 40 47 40 48 21 68 -29 31 -26 54 3 27
32 -30 39 -28 73 18 16 22 50 64 76 93 26 28 48 56 48 61 0 5 16 24 36 42 19
18 36 42 37 53 0 11 4 19 7 19 3 0 12 0 20 1 12 1 11 4 -3 12 -20 11 -52 -6
-41 -22 3 -5 -2 -6 -10 -3 -11 4 -16 0 -16 -10 0 -9 -9 -25 -20 -36 -11 -11
-20 -24 -20 -30 0 -15 -17 -12 -24 5 -3 8 -9 15 -14 15 -10 0 -54 -34 -117
-91 -34 -31 -60 -46 -81 -47 -18 -1 -51 -9 -74 -17 -58 -20 -208 -108 -245
-142 -16 -16 -43 -38 -58 -50 -16 -12 -55 -61 -87 -109 -32 -48 -68 -97 -79
-110 -12 -13 -21 -27 -21 -30 0 -4 -15 -27 -33 -53 -18 -25 -50 -76 -71 -113
-21 -38 -42 -68 -47 -68 -15 0 -39 -57 -39 -94 0 -19 -4 -38 -10 -41 -5 -3
-10 3 -10 14 0 14 -5 19 -16 14 -13 -5 -14 -17 -8 -71 5 -49 4 -63 -5 -57 -7
4 -4 -10 7 -31 21 -43 39 -97 25 -76 -6 7 -8 -12 -6 -50 1 -41 0 -54 -5 -38
l-8 25 -7 -25 c-4 -14 -7 -36 -7 -50 0 -14 -4 -31 -9 -39 -7 -11 -12 -7 -25
15 l-15 29 -1 -50 c0 -46 -12 -75 -31 -75 -4 0 -13 17 -20 38 -56 172 -276
515 -387 603 -24 19 -56 51 -72 72 -22 31 -124 117 -137 117 -7 0 -2 -9 13
-24 8 -9 11 -16 6 -16 -5 0 -17 9 -27 20 -10 11 -14 20 -9 20 22 0 -69 50
-110 61 -46 11 -72 10 -256 -10 -145 -16 -286 -66 -334 -120 -12 -13 -26 -19
-37 -16 -29 9 -100 -70 -127 -140 -13 -35 -18 -61 -12 -63 5 -2 10 -11 11 -20
1 -26 17 17 18 49 1 14 8 34 17 45 14 18 15 18 4 -4 -6 -12 -12 -48 -14 -80
-3 -53 -5 -57 -26 -54 -13 1 -33 -5 -46 -13 -31 -20 -37 -19 -31 4 4 15 -1 18
-26 17 -27 -1 -32 -7 -50 -54 -11 -28 -23 -50 -27 -47 -9 6 -1 53 11 61 5 3 9
11 9 18 0 18 -49 8 -75 -16 -11 -11 -28 -17 -37 -14 -10 2 -18 0 -18 -5 0 -6
-6 -9 -12 -7 -24 5 -106 -51 -150 -103 -23 -28 -59 -69 -79 -90 -20 -22 -36
-39 -35 -39 0 0 33 16 71 36 39 19 114 51 169 69 54 19 109 41 122 50 13 8 29
12 37 9 8 -3 41 3 73 12 33 9 88 18 124 20 79 3 112 7 125 15 8 5 100 4 100
-1 0 -5 191 -19 245 -19 19 0 47 2 63 5 20 3 27 0 27 -12 0 -13 6 -15 30 -11
16 4 32 2 35 -3 3 -5 16 -9 28 -9 12 1 42 -3 67 -9 53 -13 71 -2 36 22 -15 9
-26 13 -26 9 0 -3 -11 3 -24 16 -22 21 -66 37 -124 46 -32 5 -52 10 -72 18
-69 26 -107 32 -220 31 -124 0 -160 -4 -170 -15 -3 -3 -34 -9 -70 -13 -90 -9
-64 8 45 29 96 18 95 17 119 88 3 10 12 17 19 14 6 -2 22 7 34 20 12 12 28 23
35 23 19 0 98 77 98 95 0 8 5 15 10 15 6 0 10 11 10 25 0 23 2 25 21 14 16 -8
23 -8 29 1 5 8 9 7 13 -4 4 -11 -3 -21 -23 -31 -17 -9 -30 -17 -30 -19 0 -5
65 -46 73 -46 3 0 22 21 42 46 39 52 42 52 20 1 -8 -20 -15 -45 -15 -56 0 -18
3 -19 27 -10 30 11 90 4 142 -17 30 -13 35 -12 48 3 8 10 12 13 9 7 -3 -6 5
-9 23 -6 31 4 75 -32 67 -55 -3 -7 -1 -13 5 -13 6 0 8 -4 5 -9 -3 -4 23 0 57
9 34 9 82 20 107 24 l45 6 54 -67 c76 -95 154 -216 205 -320 42 -82 96 -215
96 -233 0 -5 -17 -14 -37 -21 -64 -20 -172 -78 -205 -109 -16 -16 -43 -35 -59
-42 -15 -7 -33 -23 -40 -35 -7 -13 -16 -23 -20 -23 -5 0 -6 -6 -3 -14 3 -8 -4
-24 -15 -35 -12 -12 -17 -21 -11 -21 19 0 10 -19 -25 -54 -19 -20 -35 -40 -35
-46 0 -5 -4 -10 -8 -10 -5 0 -9 -24 -11 -52 -1 -29 -8 -56 -14 -60 -8 -5 -6
-8 6 -8 10 0 15 -4 12 -10 -3 -5 1 -10 9 -10 22 0 12 -80 -12 -98 -15 -12 -15
-13 8 -10 18 2 26 -2 28 -16 3 -13 0 -16 -9 -11 -9 6 -11 2 -7 -13 4 -12 2
-24 -2 -27 -5 -3 -9 -13 -9 -23 -3 -182 -1 -207 14 -218 9 -7 12 -15 7 -18 -9
-5 -7 -85 3 -143 3 -17 1 -52 -5 -79 -6 -26 -8 -54 -4 -63 4 -9 8 -22 8 -30 1
-8 40 -35 88 -59 103 -53 123 -52 170 14 18 25 50 67 71 95 l38 49 177 -6
c256 -9 544 15 599 51 20 13 22 19 12 37 -10 18 -17 20 -61 14 -43 -6 -53 -4
-79 19 -38 31 -69 33 -69 4 0 -20 -21 -24 -22 -4 0 6 -13 27 -30 47 -19 25
-34 60 -44 109 -19 89 -19 90 -49 79 -13 -5 -27 -5 -30 -1 -5 10 13 70 27 88
7 9 2 14 -17 19 -25 6 -26 9 -20 48 12 70 125 398 157 455 47 81 141 202 190
242 75 62 90 69 115 56 12 -7 23 -16 25 -22 2 -5 13 -10 26 -10 17 1 22 -5 22
-23 0 -20 4 -23 22 -19 14 4 27 -1 39 -14 10 -12 23 -18 28 -14 6 3 16 -7 23
-22 7 -15 18 -32 25 -36 8 -5 11 -12 8 -18 -4 -5 2 -9 12 -10 10 0 13 -3 6 -5
-7 -3 -9 -12 -6 -21 4 -9 -13 2 -37 25 -23 23 -46 42 -50 42 -11 0 -5 -51 10
-82 14 -29 25 -35 35 -18 4 6 11 8 16 4 6 -4 3 -14 -7 -25 -9 -11 -14 -22 -10
-27 4 -4 16 3 26 15 9 12 20 20 23 17 3 -3 15 -1 26 5 13 8 18 17 14 29 -5 14
-3 15 8 5 8 -8 45 -14 94 -14 l80 -2 -71 -7 c-63 -7 -118 -25 -150 -52 -17
-13 4 -85 50 -176 31 -62 39 -71 55 -63 10 6 23 17 31 25 7 9 20 16 29 15 11
0 10 -3 -7 -11 -12 -6 -22 -16 -21 -22 3 -27 -2 -37 -18 -35 -10 1 -22 1 -27
0 -9 -1 74 -71 86 -71 3 0 11 14 17 30 5 17 16 30 24 30 18 0 51 -102 42 -130
-3 -11 -2 -20 3 -20 5 0 30 -18 55 -40 25 -22 54 -40 64 -40 21 0 136 -36 164
-51 15 -7 14 4 -7 83 -14 50 -23 96 -21 102 2 6 9 -13 16 -42 7 -28 17 -55 22
-58 5 -3 7 1 5 8 -2 7 -12 56 -22 108 -9 52 -28 124 -41 159 -13 35 -22 70
-19 77 3 7 -1 17 -8 23 -13 11 -31 67 -27 85 1 4 -16 32 -39 61 -22 28 -40 55
-40 59 0 4 -11 17 -23 29 -13 12 -29 31 -35 43 -6 12 -27 40 -47 63 -19 24
-32 48 -29 53 4 6 27 8 58 5 66 -8 269 -109 297 -149 20 -28 21 -28 51 -11 16
10 43 33 59 51 35 40 37 31 4 -23 -13 -22 -25 -43 -25 -47 0 -12 91 -69 101
-63 12 8 12 3 -6 -38 -8 -20 -15 -43 -15 -50 0 -8 27 -35 59 -61 61 -47 79
-47 67 -1 -3 13 -2 27 4 30 5 3 10 -1 10 -9 0 -9 5 -16 11 -16 6 0 9 -8 7 -18
-3 -11 1 -18 11 -18 9 -1 24 -4 33 -9 16 -6 17 -2 12 41 -17 138 -78 264 -179
368 -60 62 -86 81 -185 129 -151 74 -209 96 -273 103 -64 8 -230 -12 -275 -33
-35 -16 -28 -19 -100 33 -22 17 -36 19 -116 22 -30 2 -37 5 -29 13 13 13 -13
79 -32 79 -6 0 -38 -19 -71 -42 -33 -24 -73 -51 -89 -60 -24 -13 -29 -22 -27
-45 2 -15 10 -35 18 -44 16 -17 19 -12 -69 -90 -26 -23 -49 -40 -52 -37 -3 2
0 20 5 38 7 25 6 36 -2 41 -8 5 3 27 36 71 27 35 43 57 35 51 -7 -7 -16 -13
-20 -13 -12 0 19 110 39 135 11 14 23 39 27 55 3 16 23 47 44 70 21 23 38 48
39 56 1 8 3 20 4 27 1 7 8 19 17 27 13 13 14 12 8 -4 -4 -10 -10 -29 -13 -42
-6 -22 -3 -24 35 -24 45 0 79 27 149 123 77 103 196 197 250 197 12 0 23 4 26
8 6 10 -48 64 -79 80 -31 15 -109 26 -101 14 4 -6 -2 -8 -14 -5 -11 3 -20 8
-20 11 0 14 33 40 45 36 7 -3 20 5 29 18 9 12 16 18 16 14 0 -5 -7 -17 -16
-27 -19 -21 -11 -39 18 -39 12 0 55 -9 96 -21 40 -11 75 -19 77 -17 1 2 15 28
30 58 40 80 70 113 169 185 15 11 50 37 78 58 27 20 60 37 73 37 18 0 22 4 18
20 -5 19 -8 19 -27 6 -16 -10 -27 -11 -41 -4 -15 9 -17 8 -12 -4 5 -16 -10
-38 -26 -38 -5 0 -7 6 -5 12 5 15 -15 38 -32 38 -7 0 -9 7 -6 16 3 9 6 18 6
20 0 2 9 4 20 4 11 0 20 4 20 8 0 5 14 23 32 40 l31 33 22 -21 c22 -20 61 -28
50 -10 -9 15 5 70 17 70 6 0 17 8 24 18 12 16 14 16 28 -3 8 -11 16 -28 16
-38 0 -10 7 -20 15 -23 25 -10 17 -30 -17 -48 -18 -8 -26 -16 -17 -16 9 0 42
18 73 41 55 39 58 40 72 23 14 -19 14 -19 28 0 8 10 30 35 49 55 18 20 42 50
53 66 18 28 18 29 0 22 -11 -5 -23 -2 -30 7 -15 19 -52 24 -111 16z m-1077
-514 c-10 -7 -14 -17 -10 -21 4 -5 2 -5 -4 -2 -17 10 -68 -51 -109 -130 -41
-80 -42 -66 12 -143 16 -21 16 -23 2 -18 -21 8 -77 -44 -85 -79 -4 -13 -4 -42
-1 -63 4 -32 1 -42 -20 -62 -63 -59 -176 -242 -218 -353 -14 -38 -30 -74 -35
-79 -6 -6 -10 -25 -10 -43 0 -37 -21 -113 -31 -113 -12 0 -18 52 -29 220 -5
91 -15 208 -20 261 -10 85 -9 101 7 133 14 31 18 34 24 19 4 -10 8 -34 9 -53
1 -34 1 -34 13 -12 7 12 16 19 20 16 4 -4 7 13 7 38 0 41 6 52 52 104 117 131
313 312 408 377 29 20 43 22 18 3z m-190 -599 c17 -14 12 -79 -13 -162 -9 -33
-17 -67 -17 -75 0 -8 -11 -26 -24 -40 -36 -40 -112 -178 -133 -244 -11 -34
-32 -104 -48 -156 l-28 -95 -7 55 c-28 244 25 464 166 678 36 55 44 62 66 56
14 -3 31 -11 38 -17z m272 -251 c-57 -12 -132 -47 -163 -74 -16 -14 -15 -16
22 -33 21 -9 41 -22 45 -27 4 -6 -15 -25 -41 -43 -74 -51 -151 -119 -195 -174
l-41 -50 7 74 c4 47 14 86 26 107 23 36 104 117 144 143 14 10 24 21 21 24 -3
4 -2 5 1 2 4 -2 20 5 36 17 39 27 103 47 153 46 39 0 38 0 -15 -12z m467 -356
c25 -41 69 -115 99 -164 48 -81 105 -215 119 -283 l6 -28 -15 25 c-9 14 -20
42 -26 62 -6 20 -26 63 -45 95 -19 32 -44 75 -55 96 -12 21 -37 52 -56 69 -19
17 -34 38 -34 47 0 9 -9 24 -19 33 -11 9 -23 34 -27 55 -3 21 -12 45 -19 53
-6 8 -22 33 -35 55 l-23 40 42 -40 c24 -22 63 -74 88 -115z"/>
<path d="M4896 4031 c-4 -5 -4 -17 -1 -28 4 -11 1 -9 -6 5 -13 24 -17 26 -38
13 -8 -5 -12 -18 -8 -30 6 -24 -5 -27 -23 -6 -7 8 -17 12 -22 9 -13 -8 -2 -65
15 -76 9 -6 9 -10 -3 -18 -11 -7 -17 -4 -22 10 -8 22 -48 16 -48 -7 0 -11 -7
-13 -26 -9 -23 6 -25 5 -19 -16 8 -26 35 -58 35 -41 0 6 7 14 16 17 32 12 -19
-41 -201 -205 -30 -28 -226 -187 -340 -277 -116 -91 -302 -210 -320 -204 -5 2
-7 0 -3 -4 4 -4 0 -13 -10 -21 -16 -12 -15 -13 3 -6 11 3 32 14 46 24 33 23
93 46 67 26 -15 -12 -15 -14 2 -25 16 -10 21 -8 30 9 8 14 17 18 31 14 11 -4
19 -2 19 6 0 8 5 7 17 -2 15 -13 15 -12 4 9 -6 12 -16 22 -22 22 -6 0 -7 5 -4
10 4 6 16 8 28 5 12 -2 16 -2 10 1 -24 11 -13 22 67 75 44 29 80 56 80 61 0 4
5 8 11 8 6 0 28 14 49 30 21 17 41 30 45 30 3 0 23 14 45 31 33 26 41 29 60
19 28 -15 36 -7 15 14 -19 19 -12 36 15 36 10 0 25 7 34 15 19 20 26 19 58 -8
33 -26 41 -69 22 -116 -19 -45 -19 -46 21 -48 19 -1 35 2 35 7 0 5 6 10 14 12
7 2 44 30 81 63 61 54 73 72 127 185 73 152 110 257 102 284 -7 24 -66 105
-76 106 -4 0 -9 -4 -12 -9z"/>
<path d="M2726 3859 c-11 -16 -23 -20 -53 -19 -21 2 -47 2 -58 1 -17 -2 -16
-4 8 -17 15 -8 31 -13 35 -10 4 3 14 1 22 -4 11 -7 7 -10 -13 -15 -45 -12 -31
-24 36 -31 l62 -8 -55 -13 c-30 -7 -70 -11 -87 -9 -43 6 -41 -3 5 -34 20 -14
79 -68 131 -120 81 -83 99 -108 144 -200 50 -103 51 -107 49 -190 -1 -47 2
-103 7 -125 7 -32 9 -16 10 75 2 106 3 113 16 90 l15 -25 -4 25 c-14 77 -16
119 -6 125 6 4 9 13 6 21 -3 8 15 34 42 61 72 73 96 125 88 196 -9 85 -60 187
-94 187 -6 0 -13 6 -15 13 -4 9 -6 9 -6 0 -1 -10 -7 -10 -26 -1 -18 8 -28 8
-38 0 -10 -8 -17 -8 -24 -1 -12 12 -53 -4 -53 -21 0 -6 -7 -10 -15 -10 -8 0
-15 4 -15 9 0 6 -20 13 -45 17 -52 7 -66 21 -40 41 16 11 17 13 2 13 -9 0 -22
-9 -31 -21z"/>
<path d="M4258 3811 c-9 -11 -32 -44 -52 -74 -29 -46 -34 -62 -29 -92 6 -36
24 -58 31 -37 2 7 10 12 18 12 8 0 14 5 14 10 0 20 16 9 28 -17 l12 -28 -5 28
c-6 29 11 38 18 10 4 -17 5 -17 6 0 1 17 2 17 21 0 10 -10 23 -30 29 -43 9
-24 10 -23 11 10 1 31 3 33 13 17 34 -52 36 -54 37 -21 0 23 -6 34 -25 42 -15
7 -25 8 -25 2 0 -19 -16 -10 -33 20 -10 17 -23 27 -31 24 -7 -3 -16 3 -19 13
-2 10 -8 27 -12 38 -6 17 -3 16 15 -5 l23 -25 -8 35 c-4 19 -12 42 -18 51 -8
13 -7 22 2 33 8 9 9 16 4 16 -5 0 -16 -9 -25 -19z"/>
<path d="M4130 3611 c-11 -17 -29 -33 -40 -36 -26 -8 -110 -124 -154 -213 -33
-66 -63 -169 -52 -180 3 -2 15 8 27 22 14 16 25 22 29 15 7 -11 100 47 100 63
0 4 6 8 13 8 6 1 26 12 42 26 l30 26 -32 -18 c-45 -25 -53 -10 -15 27 32 31
44 81 22 94 -14 8 -13 58 2 90 7 17 19 25 35 25 13 0 22 4 19 9 -4 5 0 11 6
14 10 3 10 7 1 17 -6 7 -9 19 -6 26 9 23 -5 16 -27 -15z"/>
<path d="M2720 3422 c0 -4 13 -16 29 -27 23 -15 27 -23 19 -32 -8 -10 -6 -19
7 -33 10 -11 23 -19 29 -17 20 7 33 -19 45 -85 12 -72 59 -231 84 -288 l16
-35 -4 55 c-2 30 -18 108 -35 174 -16 65 -30 124 -30 132 0 9 11 14 32 14 l31
0 -21 23 c-12 13 -22 28 -22 34 0 6 -7 13 -15 17 -8 3 -15 11 -15 18 0 9 3 8
10 -2 5 -8 10 -10 10 -5 0 18 -18 38 -28 31 -6 -3 -13 -2 -17 4 -3 5 -16 8
-28 6 -12 -2 -39 3 -59 10 -21 7 -38 10 -38 6z"/>
<path d="M3625 702 c-47 -24 -105 -34 -121 -21 -11 9 -19 8 -34 -6 -11 -10
-23 -15 -27 -12 -3 4 0 7 8 7 12 0 12 2 -1 10 -16 10 -43 -6 -34 -21 3 -5 -2
-9 -11 -9 -9 0 -13 5 -10 10 9 14 -9 12 -105 -11 -47 -11 -119 -22 -160 -25
-41 -3 -79 -6 -85 -8 -5 -2 -59 1 -120 5 -120 10 -201 29 -254 62 -19 11 -31
15 -27 9 20 -33 135 -71 278 -92 87 -13 468 -19 468 -7 0 4 14 7 30 7 17 0 30
-3 30 -8 0 -22 -154 -59 -272 -66 -126 -7 -132 -25 -8 -26 216 0 453 49 486
101 4 7 -2 7 -17 -1 -22 -12 -37 -16 -84 -19 -17 -1 -18 -3 -5 -12 12 -8 11
-9 -5 -6 -11 2 -19 9 -17 16 1 7 -2 10 -8 6 -6 -3 -7 -11 -4 -17 4 -6 1 -9 -7
-6 -8 3 -13 12 -11 22 2 10 -4 16 -15 17 -10 0 11 8 47 18 36 10 79 25 97 34
33 18 57 49 46 61 -8 8 -12 7 -48 -12z"/>
</g>
</svg>
