<?xml version="1.0" standalone="no"?>
<!DOCTYPE svg PUBLIC "-//W3C//DTD SVG 20010904//EN"
 "http://www.w3.org/TR/2001/REC-SVG-20010904/DTD/svg10.dtd">
<svg version="1.0" xmlns="http://www.w3.org/2000/svg"
 width="186.000000pt" height="271.000000pt" viewBox="0 0 186.000000 271.000000"
 preserveAspectRatio="xMidYMid meet">

<g transform="translate(0.000000,271.000000) scale(0.100000,-0.100000)"
fill="#000000" stroke="none">
<path d="M1044 2432 c3 -5 0 -13 -6 -15 -9 -4 -10 -6 -1 -6 17 -1 25 16 12 25
-7 4 -9 3 -5 -4z"/>
<path d="M586 2385 c12 -76 21 -171 17 -182 -8 -19 -30 -9 -90 43 -60 53 -93
74 -114 74 -7 0 4 -12 24 -27 57 -44 51 -54 -11 -17 -31 18 -63 38 -69 44 -7
6 -13 7 -13 2 0 -11 121 -106 208 -165 32 -21 59 -42 60 -48 2 -5 8 -7 13 -3
5 3 9 -2 9 -10 0 -22 -8 -20 -76 11 -47 22 -74 27 -134 28 -41 0 -81 4 -87 8
-9 5 -11 3 -7 -7 4 -9 -2 -16 -18 -19 -13 -2 5 -5 39 -6 76 -1 165 -19 157
-32 -3 -5 -1 -9 5 -9 6 0 8 -7 5 -15 -8 -21 -50 -19 -64 3 -10 15 -11 15 -6 0
7 -24 -29 -33 -56 -14 -12 9 -38 16 -58 16 l-35 0 35 -21 c35 -22 35 -22 11
-31 -18 -6 -34 -2 -67 17 -48 28 -68 33 -38 10 18 -15 17 -16 -16 -10 -31 5
-33 4 -16 -7 10 -7 60 -43 111 -80 51 -38 98 -68 104 -68 20 0 111 -50 111
-61 0 -5 -5 -7 -11 -4 -21 13 -98 -25 -119 -59 -31 -51 -24 -54 23 -9 49 47
78 57 130 42 60 -16 44 -27 -50 -33 -11 0 -19 -4 -17 -8 2 -4 -5 -13 -17 -22
-12 -8 -18 -19 -15 -25 5 -7 0 -9 -11 -5 -17 5 -17 5 -1 -6 13 -8 25 -7 47 4
25 13 31 13 40 2 10 -12 6 -16 -20 -21 -18 -4 -27 -10 -20 -14 6 -4 -5 -14
-29 -25 -36 -16 -86 -63 -76 -73 2 -3 21 6 43 20 31 20 95 47 110 47 2 0 -6
-18 -18 -41 -21 -42 -14 -44 28 -6 22 19 24 19 42 3 17 -16 18 -21 5 -69 l-13
-52 24 30 c14 17 25 26 25 20 0 -5 5 -17 10 -25 8 -13 14 -10 35 15 l25 30 -5
-39 c-5 -45 -13 -56 -25 -37 -5 10 -8 6 -7 -12 1 -14 5 -23 10 -20 6 3 10 -8
9 -27 0 -3 7 -11 15 -19 12 -11 14 -11 11 1 -2 7 2 15 7 16 6 1 11 -9 13 -24
2 -17 0 -24 -8 -19 -6 4 -4 -9 5 -31 20 -48 28 -56 24 -24 -2 14 0 31 4 38 11
16 -3 103 -15 96 -5 -4 -8 8 -6 27 2 24 9 35 22 37 17 4 18 0 13 -42 -5 -37
-4 -46 8 -46 8 0 15 -7 15 -16 0 -9 -5 -12 -11 -8 -9 5 -10 -4 -4 -32 4 -21
10 -41 15 -44 4 -3 10 -16 13 -30 2 -14 5 1 6 33 0 36 5 56 11 52 6 -3 10 3
10 14 0 12 7 21 15 21 11 0 15 -13 15 -54 0 -30 4 -56 9 -58 5 -1 12 -32 16
-67 5 -46 4 -62 -4 -57 -8 5 -11 -10 -11 -48 0 -31 4 -56 9 -56 5 0 9 19 9 42
1 24 6 44 11 46 6 2 11 30 10 65 -1 49 -3 57 -10 37 -7 -20 -8 -17 -4 15 3 22
5 54 6 70 l1 30 9 -35 c23 -95 21 -239 -7 -469 -5 -40 -4 -52 4 -47 7 4 13 28
14 54 l1 47 6 -55 c3 -30 7 32 8 140 1 107 -2 236 -7 285 -6 53 -6 104 -1 125
7 29 9 20 10 -49 1 -102 10 -103 13 -3 1 41 5 67 10 60 4 -7 8 -8 8 -3 0 13
20 -17 20 -30 0 -5 -4 -4 -9 3 -6 10 -10 7 -13 -12 -5 -26 12 -50 20 -28 2 6
10 8 18 5 17 -6 18 1 4 28 -8 14 -8 19 2 17 13 -3 14 1 18 65 l3 42 6 -35 c5
-29 8 -32 14 -16 6 15 10 17 20 7 9 -9 9 -14 -3 -22 -11 -7 -8 -8 10 -4 19 4
31 0 44 -14 21 -24 15 -27 -17 -9 -33 18 -70 15 -73 -5 -1 -9 2 -17 7 -17 5 0
9 5 9 11 0 8 5 8 15 -1 8 -7 15 -10 15 -6 0 4 14 0 30 -9 27 -14 30 -14 30 1
0 12 4 14 13 6 7 -5 21 -6 32 -1 18 7 17 8 -7 8 -19 1 -32 11 -48 37 -12 19
-20 38 -16 41 3 4 6 0 6 -7 0 -9 7 -6 20 8 20 22 57 31 45 12 -3 -5 -12 -10
-19 -10 -8 0 -18 -6 -24 -12 -7 -10 -3 -18 15 -32 25 -18 25 -18 14 2 -15 27
-14 32 4 32 8 0 15 -7 15 -15 0 -9 6 -12 15 -8 9 3 14 8 11 11 -10 9 27 60 53
73 l26 12 -25 8 c-14 4 -18 8 -10 9 8 0 60 7 115 14 l100 12 -112 8 c-62 4
-118 4 -124 0 -9 -5 -10 0 -5 19 3 14 30 50 60 79 29 30 59 71 67 91 12 35 16
37 44 32 l30 -6 -28 26 c-16 14 -25 30 -22 35 4 6 -10 10 -36 10 -34 0 -39 2
-30 14 10 12 18 12 58 0 50 -15 123 -17 163 -4 22 7 20 8 -15 9 -22 0 -51 2
-65 4 -14 2 -45 5 -69 6 -55 1 -48 10 21 27 44 10 47 12 21 13 -17 1 -44 -4
-59 -9 -19 -8 -30 -8 -38 0 -5 5 -15 10 -20 10 -6 0 -4 -5 4 -10 13 -8 12 -10
-3 -10 -10 0 -32 -7 -49 -16 l-31 -16 7 39 c4 21 13 47 20 58 8 12 10 28 5 40
-4 11 -8 14 -8 7 -1 -7 -12 -24 -26 -37 -13 -14 -20 -25 -14 -25 9 0 5 -36 -8
-70 -3 -8 -7 -21 -9 -28 -5 -25 -14 -26 -14 -1 l0 23 -16 -22 c-14 -20 -42
-22 -30 -3 7 11 -60 30 -86 24 -19 -4 -17 -2 6 11 34 19 66 20 101 4 31 -14
47 -1 21 18 -19 13 -19 14 5 15 22 0 23 1 4 9 -12 5 -14 9 -6 9 8 1 11 4 8 7
-4 4 -12 2 -19 -3 -7 -6 -28 -13 -47 -17 -55 -10 -137 -63 -183 -119 -23 -29
-47 -55 -53 -59 -5 -4 -6 -8 -1 -8 5 0 3 -7 -4 -15 -6 -8 -9 -18 -6 -23 3 -5
-2 -9 -10 -9 -18 0 -19 -1 35 139 23 59 41 115 40 125 0 10 -3 13 -6 6 -2 -8
-22 -13 -44 -13 -35 0 -39 3 -39 25 0 16 6 25 16 25 10 0 -1 15 -27 39 l-44
39 20 22 20 22 18 -23 c22 -27 31 -20 18 15 -11 27 -5 56 10 56 5 0 9 -8 10
-17 0 -14 2 -15 6 -3 15 44 46 102 88 164 35 52 40 65 23 54 -13 -8 -32 -29
-43 -46 -11 -17 -23 -31 -27 -32 -11 0 -10 44 2 74 15 40 2 31 -15 -11 -9 -20
-13 -43 -10 -50 2 -8 1 -12 -4 -9 -5 3 -15 -18 -21 -47 -15 -60 -27 -87 -40
-87 -6 0 -10 8 -10 18 0 9 -18 36 -40 60 -33 35 -40 39 -40 22 0 -11 5 -20 12
-20 7 0 -10 -23 -37 -50 -70 -71 -88 -67 -96 25 -3 45 -14 89 -31 125 -20 41
-25 47 -22 25z m214 -194 c14 -27 13 -41 -5 -41 -8 0 -15 -4 -15 -9 0 -13 -25
-20 -39 -12 -9 6 -6 17 11 44 27 42 33 44 48 18z m-154 -128 c-2 -3 -9 -2 -14
1 -6 4 -6 22 2 48 l11 43 3 -44 c2 -23 1 -45 -2 -48z m78 38 c8 -12 -30 -58
-40 -48 -8 8 15 57 27 57 4 0 10 -4 13 -9z m-118 -48 c22 -9 42 -16 46 -15 4
1 10 -9 14 -22 3 -14 12 -27 20 -30 22 -8 16 -30 -12 -43 -20 -9 -26 -9 -30 2
-3 8 -11 12 -19 9 -7 -3 -15 2 -18 10 -7 19 -3 19 42 6 45 -13 51 -6 12 15
-18 9 -29 20 -26 25 4 6 1 10 -5 10 -6 0 -28 11 -48 25 -42 29 -32 32 24 8z
m198 11 c25 -10 19 -20 -26 -43 -32 -16 -44 -18 -50 -8 -6 9 -8 8 -8 -2 0 -8
-3 -12 -6 -8 -3 3 4 20 16 36 21 30 42 37 74 25z m-210 -50 c4 -10 1 -11 -12
-4 -9 6 -30 14 -45 20 -16 5 -26 14 -22 20 7 12 72 -18 79 -36z m-124 -34 c28
-56 25 -59 -15 -14 -38 43 -42 54 -20 54 8 0 24 -18 35 -40z m79 24 c17 -4 31
-10 31 -14 0 -12 -90 -6 -95 8 -5 13 16 15 64 6z m-149 -49 c24 -24 41 -47 39
-50 -3 -3 -31 15 -62 39 -52 40 -61 56 -32 56 6 0 31 -20 55 -45z m398 4 c-7
-5 -19 -7 -26 -4 -7 3 -10 0 -7 -5 3 -6 1 -10 -4 -10 -22 0 -10 30 17 44 24
13 27 13 30 -1 2 -9 -2 -19 -10 -24z m-250 4 c18 -4 20 -8 10 -14 -10 -7 -9
-9 4 -9 11 0 15 -5 12 -15 -7 -18 -44 -20 -44 -3 0 6 -7 20 -17 30 -18 20 -8
23 35 11z m362 -8 c0 -18 -33 -65 -45 -65 -22 0 -20 57 3 63 26 7 42 8 42 2z
m-210 -25 c0 -5 -4 -10 -10 -10 -5 0 -10 5 -10 10 0 6 5 10 10 10 6 0 10 -4
10 -10z m-61 -22 c6 -13 9 -15 7 -5 -3 9 -1 17 4 17 6 0 10 -10 10 -23 0 -16
-6 -23 -19 -23 -11 0 -19 3 -19 6 0 3 -1 7 -2 10 -15 39 0 53 19 18z m171 13
c0 -5 -9 -11 -20 -14 -22 -6 -28 8 -7 16 19 8 27 8 27 -2z m-273 -50 c19 -10
22 -9 16 5 -4 12 -2 15 8 12 13 -4 31 -85 22 -100 -2 -4 -18 8 -34 27 -17 19
-28 39 -24 45 4 6 1 9 -5 8 -6 -2 -19 8 -28 22 -16 24 -16 25 3 9 11 -9 30
-22 42 -28z m270 -3 c1 -30 1 -31 -6 -8 -7 21 -5 40 2 40 2 0 3 -15 4 -32z
m-67 18 c0 -2 -7 -7 -16 -10 -8 -3 -12 -2 -9 4 6 10 25 14 25 6z m338 -10 c17
0 32 -3 32 -8 0 -4 0 -11 0 -15 0 -5 -5 -8 -10 -8 -6 0 -15 -7 -20 -15 -8 -13
-11 -12 -24 5 -8 11 -12 24 -9 29 4 5 -10 7 -32 3 -34 -6 -36 -5 -19 8 11 8
26 11 34 8 8 -4 30 -7 48 -7z m-208 -1 c0 -11 -30 -119 -35 -123 -11 -12 -12
6 -2 66 7 39 16 62 24 62 7 0 13 -2 13 -5z m-84 -51 c20 -48 16 -55 -16 -34
-13 9 -13 11 0 21 12 8 11 9 -5 5 -12 -3 -31 3 -45 14 -20 16 -22 20 -7 20 9
0 17 4 17 9 0 22 44 -5 56 -35z m-146 -9 c0 -13 -4 -27 -10 -30 -6 -4 -10 8
-10 30 0 22 4 34 10 30 6 -3 10 -17 10 -30z m670 17 c19 -16 21 -22 11 -40
-11 -21 -12 -21 -45 11 -19 18 -32 35 -29 40 8 13 40 7 63 -11z m-284 -24 c4
-13 15 -34 25 -47 19 -24 25 -52 12 -50 -23 4 -25 -3 -4 -17 l24 -17 -24 -13
c-30 -17 -42 -17 -33 -2 4 7 3 8 -5 4 -15 -9 -5 -26 16 -26 13 0 13 -3 3 -15
-17 -20 -27 -19 -35 5 -7 23 -35 27 -35 6 0 -16 -27 -29 -35 -17 -3 5 18 23
45 41 47 30 71 67 33 53 -10 -4 -14 -2 -9 5 3 6 2 13 -4 17 -5 3 -10 11 -10
16 0 6 5 7 12 3 8 -5 9 4 4 34 -7 45 7 58 20 20z m98 -19 c-11 -18 -24 -8 -24
19 1 26 1 26 15 8 8 -10 12 -23 9 -27z m136 14 c3 -3 -4 -11 -15 -19 -17 -13
-21 -13 -32 2 -7 9 -10 21 -7 26 5 8 42 2 54 -9z m-69 -19 c16 -15 16 -17 -2
-49 -12 -20 -26 -32 -33 -29 -19 7 -14 36 9 56 12 10 15 17 8 18 -7 0 -13 5
-13 10 0 14 11 12 31 -6z m-116 -4 c3 -5 1 -10 -4 -10 -6 0 -11 5 -11 10 0 6
2 10 4 10 3 0 8 -4 11 -10z m-88 -56 c13 -20 12 -24 -19 -45 -18 -13 -36 -28
-40 -33 -4 -6 -8 -8 -10 -6 -18 28 -27 51 -19 45 6 -3 12 -1 12 4 1 6 3 16 4
21 1 6 3 14 4 18 0 5 11 19 23 32 21 23 23 23 27 5 2 -10 10 -29 18 -41z m292
37 c8 -15 4 -25 -19 -52 -16 -19 -38 -45 -49 -59 -17 -21 -20 -22 -21 -7 0 10
12 30 28 44 15 15 21 23 15 19 -18 -10 -16 -3 8 38 24 42 25 42 38 17z m-622
-13 c-3 -8 -6 -5 -6 6 -1 11 2 17 5 13 3 -3 4 -12 1 -19z m-60 -60 c15 -7 29
-12 29 -13 1 0 4 -9 8 -20 9 -30 -26 -30 -58 0 -43 40 -33 56 21 33z m558 -35
c-3 -21 -11 -42 -17 -48 -8 -7 -9 -4 -4 8 3 10 6 32 6 48 0 16 5 29 11 29 8 0
9 -13 4 -37z m-485 -15 c0 -17 3 -18 14 -9 12 10 13 8 9 -9 -7 -28 -24 -21
-40 18 -11 27 -11 31 2 26 8 -4 15 -15 15 -26z m208 -29 c-3 -8 -7 -3 -11 10
-4 17 -3 21 5 13 5 -5 8 -16 6 -23z m333 -7 c-10 -20 -40 -37 -49 -28 -2 3 8
16 23 31 31 28 42 27 26 -3z m-231 4 c0 -3 -4 -8 -10 -11 -5 -3 -10 -1 -10 4
0 6 5 11 10 11 6 0 10 -2 10 -4z m-252 -28 c-6 -16 -21 -14 -24 4 -1 11 3 15
12 11 8 -3 13 -10 12 -15z m-74 -7 c3 -5 -1 -11 -9 -15 -15 -6 -29 7 -18 18 9
9 21 8 27 -3z m528 -23 c-6 -6 -15 -8 -19 -4 -4 4 -1 11 7 16 8 5 17 7 19 4 3
-2 -1 -10 -7 -16z m-312 -18 c8 -5 11 -12 7 -16 -4 -4 -15 0 -24 9 -18 18 -8
23 17 7z m101 -17 c-8 -15 -10 -15 -11 -2 0 17 10 32 18 25 2 -3 -1 -13 -7
-23z m66 5 c-3 -8 -6 -5 -6 6 -1 11 2 17 5 13 3 -3 4 -12 1 -19z m163 12 c-8
-5 -19 -10 -25 -10 -5 0 -3 5 5 10 8 5 20 10 25 10 6 0 3 -5 -5 -10z m-553
-32 c-3 -8 -6 -5 -6 6 -1 11 2 17 5 13 3 -3 4 -12 1 -19z m488 2 c-3 -5 -11
-10 -16 -10 -6 0 -7 5 -4 10 3 6 11 10 16 10 6 0 7 -4 4 -10z m-338 -82 c-2
-18 -4 -6 -4 27 0 33 2 48 4 33 2 -15 2 -42 0 -60z m63 10 c0 -15 -4 -16 -25
-6 -27 12 -33 46 -12 67 10 10 14 7 24 -16 7 -15 12 -36 13 -45z m142 30 c-4
-38 -6 -40 -18 -23 -8 10 -14 28 -13 39 1 18 2 18 9 -4 l8 -25 1 28 c1 15 4
27 9 27 4 0 6 -19 4 -42z m-292 -27 c0 -22 -26 -35 -33 -17 -6 14 10 36 25 36
4 0 8 -9 8 -19z m27 -93 c-3 -8 -6 -5 -6 6 -1 11 2 17 5 13 3 -3 4 -12 1 -19z"/>
<path d="M586 1655 c10 -8 24 -14 29 -14 6 0 1 6 -9 14 -11 8 -24 15 -30 15
-5 0 -1 -7 10 -15z"/>
<path d="M530 2258 c24 -32 46 -55 48 -53 5 5 -51 77 -75 96 -9 8 3 -12 27
-43z"/>
<path d="M1103 2303 c15 -2 39 -2 55 0 15 2 2 4 -28 4 -30 0 -43 -2 -27 -4z"/>
<path d="M1018 2213 c12 -2 30 -2 40 0 9 3 -1 5 -23 4 -22 0 -30 -2 -17 -4z"/>
<path d="M1080 2205 c0 -2 15 -12 33 -20 l32 -16 -24 21 c-22 19 -41 26 -41
15z"/>
<path d="M985 2115 c27 -13 51 -22 54 -20 2 3 -1 5 -8 5 -7 0 -10 4 -7 9 7 10
-37 31 -66 31 -14 0 -5 -8 27 -25z"/>
<path d="M884 2047 c11 -7 34 -25 53 -41 46 -39 52 -27 10 18 -22 22 -43 36
-58 35 -23 0 -23 -1 -5 -12z"/>
<path d="M1505 2041 c-51 -18 -151 -70 -164 -84 -12 -15 -11 -17 5 -16 42 1
99 15 99 24 1 21 22 43 60 63 39 21 39 27 0 13z"/>
<path d="M1568 2023 c-15 -2 -48 -15 -75 -29 -26 -14 -39 -23 -28 -20 34 8
125 43 132 50 3 3 4 5 2 5 -2 -1 -16 -4 -31 -6z"/>
<path d="M90 1997 c3 -3 39 -17 80 -31 41 -15 79 -31 85 -37 5 -5 -10 -3 -34
6 -24 8 -46 14 -48 11 -7 -7 52 -26 107 -35 48 -8 52 -7 34 6 -40 29 -141 73
-184 79 -25 4 -43 4 -40 1z"/>
<path d="M1570 1990 c0 -13 11 -13 30 0 12 8 11 10 -7 10 -13 0 -23 -4 -23
-10z"/>
<path d="M1518 1963 c7 -3 16 -2 19 1 4 3 -2 6 -13 5 -11 0 -14 -3 -6 -6z"/>
<path d="M1470 1950 c-13 -8 -13 -10 2 -10 9 0 20 5 23 10 8 13 -5 13 -25 0z"/>
<path d="M200 1874 c-16 -10 -18 -13 -5 -8 11 4 45 10 75 14 l55 7 -50 1 c-29
1 -60 -5 -75 -14z"/>
<path d="M380 1840 c0 -5 12 -10 26 -10 14 0 23 4 19 10 -3 6 -15 10 -26 10
-10 0 -19 -4 -19 -10z"/>
<path d="M375 1651 c-38 -9 -68 -26 -85 -45 -10 -13 -10 -16 4 -16 11 0 14 5
10 12 -5 7 -2 9 9 5 9 -3 27 3 40 14 14 10 42 23 64 28 25 6 30 9 13 9 -14 0
-38 -3 -55 -7z"/>
<path d="M1220 1466 c0 -9 7 -12 20 -9 11 3 17 9 14 14 -8 14 -34 10 -34 -5z"/>
<path d="M1283 1473 c9 -2 23 -2 30 0 6 3 -1 5 -18 5 -16 0 -22 -2 -12 -5z"/>
<path d="M1228 1383 c12 -2 30 -2 40 0 9 3 -1 5 -23 4 -22 0 -30 -2 -17 -4z"/>
<path d="M1011 1313 c-6 -31 -11 -68 -10 -82 0 -23 1 -24 8 -6 10 24 25 145
18 145 -2 0 -9 -26 -16 -57z"/>
<path d="M1208 1363 c12 -2 30 -2 40 0 9 3 -1 5 -23 4 -22 0 -30 -2 -17 -4z"/>
<path d="M751 1304 c0 -11 3 -14 6 -6 3 7 2 16 -1 19 -3 4 -6 -2 -5 -13z"/>
<path d="M820 1254 c0 -16 5 -36 10 -44 6 -10 7 -2 3 25 -7 49 -13 58 -13 19z"/>
<path d="M962 1210 c0 -14 2 -19 5 -12 2 6 2 18 0 25 -3 6 -5 1 -5 -13z"/>
<path d="M762 1200 c0 -14 2 -19 5 -12 2 6 2 18 0 25 -3 6 -5 1 -5 -13z"/>
<path d="M801 1164 c0 -11 3 -14 6 -6 3 7 2 16 -1 19 -3 4 -6 -2 -5 -13z"/>
<path d="M772 1145 c0 -16 2 -22 5 -12 2 9 2 23 0 30 -3 6 -5 -1 -5 -18z"/>
<path d="M832 1130 c0 -14 2 -19 5 -12 2 6 2 18 0 25 -3 6 -5 1 -5 -13z"/>
<path d="M1014 995 c0 -71 1 -99 3 -62 2 37 2 96 0 130 -2 34 -3 4 -3 -68z"/>
<path d="M781 1094 c0 -11 3 -14 6 -6 3 7 2 16 -1 19 -3 4 -6 -2 -5 -13z"/>
<path d="M902 1080 c0 -14 2 -19 5 -12 2 6 2 18 0 25 -3 6 -5 1 -5 -13z"/>
<path d="M769 995 c-6 -82 1 -195 12 -195 5 0 9 17 10 38 1 38 3 36 13 -9 3
-14 12 -26 21 -26 11 0 15 13 16 56 1 43 3 50 9 31 4 -14 9 -41 10 -60 l3 -35
6 40 c3 22 2 64 -3 93 -5 36 -5 62 3 78 9 20 7 25 -11 35 -20 11 -21 9 -16
-44 2 -31 1 -54 -4 -51 -4 3 -8 0 -8 -6 0 -6 -4 -8 -10 -5 -5 3 -10 -2 -11
-12 -1 -29 -18 23 -28 81 l-8 51 -4 -60z m48 -147 c-3 -8 -6 -5 -6 6 -1 11 2
17 5 13 3 -3 4 -12 1 -19z"/>
<path d="M983 980 c0 -41 2 -58 4 -37 2 20 2 54 0 75 -2 20 -4 3 -4 -38z"/>
<path d="M1061 1024 c0 -11 3 -14 6 -6 3 7 2 16 -1 19 -3 4 -6 -2 -5 -13z"/>
<path d="M1046 959 c-3 -17 -5 -46 -5 -63 1 -18 5 -7 10 28 9 63 6 88 -5 35z"/>
<path d="M972 868 c-1 -20 -5 -45 -8 -55 -5 -14 -4 -15 5 -7 7 7 11 29 8 55
-3 42 -4 42 -5 7z"/>
<path d="M998 835 c-3 -14 -1 -25 3 -25 5 0 9 11 9 25 0 14 -2 25 -4 25 -2 0
-6 -11 -8 -25z"/>
<path d="M1032 830 c0 -19 2 -27 5 -17 2 9 2 25 0 35 -3 9 -5 1 -5 -18z"/>
<path d="M663 124 c17 -9 65 -16 130 -19 96 -4 98 -3 27 4 -41 5 -93 13 -115
20 -55 15 -75 13 -42 -5z"/>
</g>
</svg>
