<?xml version="1.0" standalone="no"?>
<!DOCTYPE svg PUBLIC "-//W3C//DTD SVG 20010904//EN"
 "http://www.w3.org/TR/2001/REC-SVG-20010904/DTD/svg10.dtd">
<svg version="1.0" xmlns="http://www.w3.org/2000/svg"
 width="352.000000pt" height="626.000000pt" viewBox="0 0 352.000000 626.000000"
 preserveAspectRatio="xMidYMid meet">

<g transform="translate(0.000000,626.000000) scale(0.100000,-0.100000)"
fill="#000000" stroke="none">
<path d="M1470 5398 c13 -33 31 -132 34 -191 6 -114 41 -182 121 -235 28 -19
51 -37 53 -41 5 -14 -56 -5 -83 13 -21 14 -48 17 -150 15 l-125 -1 15 -21 c22
-32 18 -53 -14 -74 -33 -20 -93 -98 -84 -107 4 -3 13 -6 22 -6 9 0 25 -8 36
-16 14 -11 15 -15 5 -13 -8 1 -28 -3 -43 -9 -16 -7 -32 -12 -37 -12 -5 0 -25
-10 -45 -21 -43 -25 -52 -20 -35 20 15 36 0 73 -42 104 l-28 21 -55 -60 c-30
-32 -57 -69 -61 -81 -7 -26 14 -96 27 -88 15 10 10 -7 -8 -27 -15 -17 -14 -18
31 -18 50 0 69 -18 46 -45 -11 -13 -10 -14 3 -10 8 4 18 2 21 -3 3 -6 16 -8
28 -4 13 3 19 1 15 -6 -4 -5 -1 -13 5 -15 10 -4 10 -8 -1 -15 -9 -7 -10 -12
-2 -16 6 -4 11 -14 11 -22 0 -9 -5 -12 -11 -8 -11 7 -29 -12 -29 -31 0 -5 4
-4 9 4 7 11 10 9 16 -7 7 -25 -8 -61 -19 -43 -12 18 -87 14 -102 -6 -17 -22
-18 -37 -2 -27 7 5 8 3 3 -7 -5 -7 -8 -27 -7 -43 2 -16 -5 -37 -14 -47 -10
-11 -12 -19 -7 -19 6 0 18 -15 27 -32 8 -18 16 -26 16 -18 0 9 12 2 30 -18 39
-43 74 -41 78 3 2 24 11 33 43 47 l39 17 -20 50 c-19 48 -17 61 6 44 5 -5 -1
2 -15 14 -16 14 -22 28 -18 42 3 14 0 21 -10 21 -8 0 -11 5 -8 10 10 17 33 11
40 -9 8 -26 33 -34 51 -16 10 10 36 15 76 15 51 0 59 2 49 14 -8 9 -8 16 -2
20 5 4 12 -2 16 -12 3 -11 15 -23 27 -29 19 -8 17 -11 -26 -23 l-47 -13 22
-23 c12 -13 20 -27 16 -30 -9 -9 -87 33 -107 59 l-18 22 5 -26 c3 -15 -1 -32
-9 -40 -8 -8 -17 -22 -21 -31 -5 -14 -1 -18 18 -18 33 0 74 -20 79 -39 14 -51
16 -82 6 -100 -9 -17 -8 -21 5 -21 9 0 13 -5 10 -10 -4 -6 -12 -10 -18 -8 -20
3 -57 -13 -57 -25 0 -8 15 -11 45 -9 55 5 59 -11 6 -26 -52 -16 -70 -38 -40
-47 20 -7 20 -9 6 -17 -11 -5 -24 -5 -37 2 -11 6 -25 8 -31 4 -6 -3 -18 1 -27
9 -26 23 -72 33 -72 15 0 -8 -9 -23 -20 -33 -22 -20 -28 -89 -8 -101 7 -4 8
-3 4 4 -10 16 15 92 29 92 23 0 34 -26 28 -62 -4 -28 -11 -38 -30 -43 -37 -9
-10 -36 36 -35 20 0 55 -1 78 -4 24 -2 45 0 48 5 4 5 15 9 26 9 13 0 18 4 13
12 -5 8 -2 9 10 5 10 -4 24 -7 32 -7 10 0 12 -5 8 -12 -6 -10 -4 -10 8 0 25
20 61 -23 54 -63 -4 -16 -11 -32 -17 -36 -6 -3 -10 -10 -10 -15 1 -4 -11 -10
-26 -12 -15 -2 -34 -8 -41 -15 -12 -9 -11 -13 3 -23 9 -7 14 -17 10 -23 -3 -6
-1 -11 6 -11 7 0 5 -8 -6 -20 -27 -29 -3 -24 25 5 18 19 26 22 32 13 6 -10 8
-9 9 2 0 10 3 8 8 -5 19 -45 -24 -68 -84 -45 -26 10 -26 10 -22 -33 3 -25 -2
-54 -10 -71 -8 -15 -10 -25 -4 -21 6 3 18 20 27 38 28 53 62 74 79 47 8 -13
44 20 38 35 -2 7 0 16 6 20 24 14 9 -38 -18 -66 l-29 -29 34 0 c27 0 36 -5 44
-24 7 -18 14 -23 29 -19 12 3 21 12 21 19 0 8 4 14 10 14 5 0 7 -13 3 -31 -6
-31 -5 -32 25 -27 27 4 32 1 32 -16 0 -17 2 -18 10 -6 8 12 10 9 10 -12 0 -29
-14 -38 -23 -15 -3 6 -6 0 -6 -14 -1 -14 -8 -34 -16 -45 -14 -18 -14 -18 -9 2
9 34 -15 39 -62 13 -33 -18 -42 -28 -38 -41 4 -12 0 -18 -11 -18 -9 0 -27 -12
-40 -26 -13 -14 -28 -23 -33 -20 -6 3 -10 0 -9 -7 1 -32 -4 -47 -15 -47 -7 0
-31 -16 -53 -36 l-40 -36 49 26 c27 14 52 26 56 26 11 0 8 -30 -4 -31 -6 0 6
-7 27 -16 24 -10 37 -22 37 -34 0 -14 7 -19 25 -19 22 0 25 -4 25 -33 0 -42
15 -57 58 -57 42 0 95 31 110 64 10 23 8 109 -4 127 -3 5 -14 9 -25 9 -10 0
-19 5 -19 10 0 6 5 10 10 10 19 0 100 89 100 110 0 22 20 26 38 8 9 -9 12 -8
12 6 0 15 5 17 27 12 16 -5 29 -3 34 5 4 6 13 10 21 7 10 -4 13 -18 10 -48 -4
-37 -6 -40 -15 -24 -23 42 -66 46 -95 9 -11 -14 -24 -25 -29 -25 -5 0 -8 -15
-6 -32 11 -110 -2 -205 -28 -213 -10 -4 -22 -17 -25 -31 -4 -15 -13 -24 -25
-24 -12 0 -19 -7 -19 -20 0 -11 5 -20 10 -20 6 0 8 -15 4 -38 -4 -27 -1 -49
10 -70 10 -20 12 -32 6 -32 -7 0 -9 -9 -5 -22 5 -18 4 -20 -4 -8 -9 13 -11 12
-11 -5 0 -19 -2 -18 -19 4 -10 13 -18 35 -18 48 -1 23 1 23 18 7 18 -16 18
-15 2 25 -16 41 -45 67 -62 57 -8 -5 -55 41 -85 84 l-18 25 7 -25 c4 -14 21
-39 37 -57 l31 -32 -22 -27 c-26 -34 -27 -47 -1 -39 14 5 20 2 20 -9 0 -10 -9
-16 -24 -16 -29 0 -38 -10 -26 -30 5 -8 3 -24 -5 -39 -16 -31 -30 -151 -21
-179 7 -20 56 -38 56 -20 0 5 5 6 10 3 6 -3 10 -2 10 4 0 5 -5 11 -12 13 -8 3
-7 12 3 33 16 32 43 48 32 18 -6 -17 -6 -17 10 -1 9 9 15 23 12 31 -3 7 1 20
11 27 19 17 47 22 38 8 -10 -15 26 -47 69 -60 45 -14 53 -28 40 -71 -7 -23 -6
-41 3 -62 14 -32 18 -22 14 41 -1 18 4 35 11 40 8 4 10 3 5 -5 -5 -7 3 -13 23
-17 17 -4 28 -11 24 -16 -4 -7 0 -7 12 -1 10 6 26 8 36 6 23 -6 24 0 2 33 -16
25 -16 27 8 45 13 10 28 14 33 9 14 -14 9 -83 -8 -95 -9 -7 -14 -14 -12 -16 2
-2 6 -28 9 -57 5 -46 4 -53 -10 -50 -9 2 -29 -8 -45 -22 l-28 -24 22 -23 c25
-27 14 -31 -16 -6 -11 10 -7 2 9 -17 20 -24 31 -31 33 -22 5 20 70 -45 67 -66
-1 -10 0 -11 2 -5 6 18 24 16 38 -4 11 -15 15 -14 41 10 33 31 43 33 45 12 3
-30 4 -34 15 -45 16 -16 16 38 -1 86 l-13 39 -13 -28 c-13 -28 -33 -39 -23
-12 7 18 -7 20 -24 3 -9 -9 -12 -9 -12 0 0 6 13 21 30 33 27 20 29 26 25 71
-3 34 -1 46 7 42 7 -5 9 0 5 15 -3 12 0 27 6 34 18 18 19 57 2 73 -9 9 -15 11
-15 4 0 -6 -5 -8 -12 -4 -7 4 -8 3 -4 -5 4 -6 12 -9 17 -6 12 8 12 -36 -1 -55
-7 -11 -11 -9 -19 13 -6 15 -13 27 -15 27 -4 0 1 -61 7 -93 3 -13 -57 -30 -61
-17 -2 6 -7 8 -11 5 -5 -2 9 28 30 68 40 75 47 101 28 113 -8 4 -9 -1 -4 -15
6 -20 4 -22 -23 -18 -42 7 -51 14 -45 37 3 11 10 17 15 14 5 -3 25 11 44 33
25 27 37 34 41 24 12 -29 45 -53 56 -42 17 17 27 13 27 -11 0 -13 5 -30 10
-38 9 -13 10 -13 10 0 0 8 -4 29 -9 45 -7 25 -4 36 15 60 27 34 31 77 9 95 -9
7 -13 20 -11 27 7 18 -31 8 -52 -13 -20 -20 -35 -17 -29 5 3 11 -3 28 -14 40
-26 28 -24 38 3 15 12 -10 18 -13 14 -7 -4 7 -2 22 4 33 9 17 7 26 -9 47 -12
14 -21 20 -21 14 0 -8 -9 -7 -30 4 -27 14 -30 20 -30 63 0 37 7 54 30 82 25
29 31 33 40 20 6 -9 8 -37 4 -66 -6 -48 -5 -52 18 -56 22 -4 24 -2 20 26 -2
21 -1 27 6 18 5 -8 8 -32 7 -54 -2 -28 1 -36 8 -29 15 15 27 14 27 -4 0 -9 9
-15 23 -15 30 0 44 -30 41 -87 -1 -30 3 -47 17 -59 15 -13 18 -25 13 -46 -5
-27 -4 -29 23 -22 58 14 83 33 82 62 l-2 27 -4 -27 c-3 -17 -11 -28 -20 -28
-11 0 -14 6 -9 25 7 26 -17 47 -41 38 -7 -3 -13 2 -13 11 0 9 7 16 15 16 9 0
12 6 9 15 -4 10 -10 12 -18 6 -12 -10 -40 12 -29 23 11 11 24 6 17 -6 -4 -7
-3 -8 4 -4 6 4 9 13 6 21 -3 8 10 29 30 49 20 19 36 40 36 47 0 7 6 20 14 28
20 24 28 91 10 91 -8 0 -14 -10 -14 -22 0 -35 -24 -93 -37 -93 -7 0 -18 6 -25
14 -11 12 -10 13 3 8 13 -4 15 -1 12 14 -3 10 -9 16 -14 13 -5 -3 -9 4 -9 15
0 17 -6 21 -30 21 -16 0 -30 -4 -30 -10 0 -5 -5 -10 -10 -10 -18 0 13 39 33
42 12 2 24 18 32 41 17 50 18 50 49 35 22 -9 29 -9 36 1 4 8 13 11 19 7 12 -8
4 21 -11 41 -6 7 -3 23 6 42 9 16 16 37 16 46 0 8 7 15 15 15 8 0 12 6 9 14
-8 20 14 30 33 14 15 -11 16 -11 10 5 -4 10 -7 21 -7 23 0 3 -5 2 -11 -2 -8
-4 -8 0 0 15 7 11 10 21 9 22 -85 15 -108 6 -108 -41 0 -5 -7 -10 -16 -10 -9
0 -12 5 -8 13 6 9 5 9 -7 0 -8 -7 -26 -10 -40 -7 -19 5 -21 3 -9 -5 8 -6 27
-11 43 -11 35 0 34 -13 -4 -47 -24 -22 -30 -35 -29 -63 3 -66 0 -87 -13 -87
-10 0 -13 11 -11 33 3 48 15 97 25 110 5 7 4 11 -4 11 -15 0 -77 43 -77 53 0
12 65 29 90 24 19 -4 21 -3 11 4 -12 9 -9 12 14 18 36 9 66 34 41 34 -10 0
-16 9 -16 24 0 20 4 23 23 20 12 -2 7 1 -10 8 -37 12 -41 27 -14 52 12 11 17
25 13 38 -5 20 -4 20 22 3 15 -10 29 -15 33 -11 3 3 0 6 -8 6 -8 0 -4 8 11 20
25 19 25 19 38 -3 13 -21 13 -21 8 4 -4 17 0 31 10 39 16 14 54 91 54 111 0 7
-9 5 -21 -7 l-22 -19 14 25 c7 14 12 31 10 39 -1 8 2 10 10 5 7 -4 10 -3 5 4
-3 6 -22 9 -41 6 -40 -5 -47 11 -12 26 22 10 22 10 -3 9 -46 -2 -60 1 -60 12
0 6 9 9 19 6 16 -4 19 0 17 22 -2 21 -7 26 -26 24 -24 -3 -24 -2 -5 10 25 15
32 92 8 83 -9 -4 -13 -1 -11 6 3 7 20 14 39 16 64 5 79 12 109 54 22 30 30 52
30 83 0 40 -2 43 -31 49 -17 3 -42 6 -55 6 -29 0 -32 16 -5 25 44 14 158 181
138 202 -10 10 -119 10 -139 -1 -14 -6 -18 -4 -18 9 0 9 5 13 10 10 6 -3 10
-3 10 2 -1 18 -21 100 -32 126 -10 25 -14 27 -47 21 -20 -3 -55 -12 -79 -20
-53 -17 -76 -7 -33 13 26 13 29 18 20 36 -9 16 -9 19 2 14 54 -21 52 -21 38 1
-7 12 -15 19 -18 17 -2 -3 -10 0 -18 6 -10 9 -13 7 -14 -7 -1 -11 -2 -23 -4
-29 -1 -5 -3 -16 -3 -22 -1 -8 -11 -11 -24 -9 -13 3 -26 5 -30 5 -5 1 -8 9 -8
18 0 9 3 13 6 10 13 -13 46 14 41 34 -4 14 1 21 21 25 15 4 31 9 37 13 5 3 21
4 35 3 16 -2 29 4 38 18 7 11 8 20 3 20 -5 0 -12 12 -15 28 -16 66 -59 160
-71 156 -7 -3 -16 0 -20 6 -6 9 -9 9 -15 0 -14 -23 -60 1 -82 43 l-20 41 -15
-27 c-13 -26 -33 -37 -33 -18 0 13 -40 7 -49 -8 -5 -8 -18 -12 -30 -8 -12 3
-21 1 -21 -4 0 -5 -4 -9 -10 -9 -5 0 -10 8 -10 17 0 22 -15 6 -25 -26 -7 -22
-5 -23 24 -16 20 4 31 3 31 -4 0 -6 -11 -11 -25 -11 -13 0 -33 -10 -45 -22
-11 -12 -20 -19 -20 -16 0 4 16 53 35 110 83 241 105 312 101 324 -3 7 2 18
10 24 8 7 14 16 14 20 0 4 -17 -9 -37 -28 -21 -20 -37 -43 -35 -51 2 -12 1
-13 -6 -3 -19 28 -153 -138 -177 -218 l-8 -25 -8 23 c-5 13 -17 22 -29 22 -22
0 -23 5 -10 35 9 19 9 19 16 -2 8 -28 24 -30 24 -5 0 23 55 107 84 128 20 16
20 16 -11 10 -18 -3 -34 -2 -37 2 -11 18 52 119 114 182 50 51 64 70 50 70
-49 0 -89 -37 -82 -76 1 -6 -4 -17 -12 -23 -12 -10 -13 -6 -6 23 7 34 7 35
-13 24 -35 -18 -117 -106 -117 -124 0 -13 -9 -8 -35 20 -19 21 -39 35 -45 31
-6 -4 -9 -1 -8 7 2 8 -37 34 -97 64 -55 29 -103 52 -107 53 -4 1 -3 -9 2 -21z
m85 -156 c-6 -7 -35 18 -35 31 0 5 9 2 20 -8 11 -10 18 -20 15 -23z m405 -77
c-7 -9 -15 -13 -17 -11 -7 7 7 26 19 26 6 0 6 -6 -2 -15z m-50 -185 c0 -5 -2
-10 -4 -10 -3 0 -8 5 -11 10 -3 6 -1 10 4 10 6 0 11 -4 11 -10z m-116 -58 c6
-10 -25 -81 -35 -82 -4 0 -9 15 -13 32 -5 25 -2 36 11 45 20 15 30 16 37 5z
m286 -62 c-6 -11 -18 -20 -28 -20 -13 0 -12 4 8 20 31 25 33 25 20 0z m-520
-41 c0 -5 7 -6 15 -3 29 11 15 -14 -16 -29 -27 -12 -37 -13 -63 -2 -32 13 -63
14 -82 3 -5 -4 -16 -3 -23 2 -12 6 -11 11 0 24 11 12 32 16 92 15 42 -1 77 -6
77 -10z m-220 -28 c0 -18 -37 -54 -44 -43 -4 6 2 20 14 32 22 22 30 25 30 11z
m360 -21 c-6 -11 -15 -20 -20 -20 -16 0 -11 18 8 29 24 14 24 14 12 -9z m-430
0 c0 -5 -4 -10 -10 -10 -5 0 -10 5 -10 10 0 6 5 10 10 10 6 0 10 -4 10 -10z
m566 -12 c-1 -18 -55 -68 -61 -57 -9 14 14 49 38 59 12 5 22 9 23 9 0 1 0 -5
0 -11z m203 -43 c-1 -29 -1 -29 -9 -5 -4 14 -8 34 -9 45 -1 16 1 17 9 5 5 -8
9 -28 9 -45z m-135 36 c3 -5 -1 -11 -9 -15 -19 -7 -8 -36 14 -37 26 -1 -19
-18 -49 -18 l-25 0 23 19 c14 11 18 21 12 25 -8 5 -7 11 1 21 13 16 25 18 33
5z m-376 -43 c16 -16 15 -28 -3 -28 -8 0 -15 2 -15 4 0 2 -3 11 -6 20 -7 19 7
21 24 4z m762 8 c0 -2 -8 -10 -17 -17 -16 -13 -17 -12 -4 4 13 16 21 21 21 13z
m-134 -53 c-11 -11 -19 6 -11 24 8 17 8 17 12 0 3 -10 2 -21 -1 -24z m-1048
-13 c14 0 40 5 59 12 39 14 50 7 31 -21 -8 -12 -17 -18 -20 -16 -3 3 -17 1
-30 -6 -21 -9 -26 -18 -26 -55 -1 -25 -4 -49 -8 -55 -9 -15 -34 10 -34 35 0
11 -7 29 -15 39 -7 11 -11 24 -9 31 3 7 -5 18 -18 24 l-23 12 24 -6 c22 -6 23
-4 18 22 -5 29 -5 29 10 7 9 -14 26 -23 41 -23z m902 -16 c0 -14 -31 -19 -43
-8 -3 4 -2 15 4 26 8 15 13 17 25 7 8 -6 14 -18 14 -25z m115 6 c3 -5 -1 -10
-9 -10 -9 0 -16 5 -16 10 0 6 4 10 9 10 6 0 13 -4 16 -10z m-310 -40 c-10 -11
-22 -20 -27 -20 -4 0 -3 9 4 20 7 11 19 20 27 20 11 0 10 -5 -4 -20z m328 13
c-7 -2 -19 -2 -25 0 -7 3 -2 5 12 5 14 0 19 -2 13 -5z m32 -92 c-10 -10 -34
10 -29 24 6 14 8 13 19 -2 8 -10 12 -20 10 -22z m-562 -39 c-4 -35 -10 -52
-20 -52 -11 0 -12 9 -7 38 7 39 23 76 30 70 2 -2 1 -28 -3 -56z m244 21 c-3
-10 -5 -4 -5 12 0 17 2 24 5 18 2 -7 2 -21 0 -30z m-471 -3 c8 0 14 -4 14 -10
0 -17 -35 -11 -52 9 -20 23 -12 36 9 16 8 -8 21 -15 29 -15z m442 0 c9 0 11
-7 7 -20 -3 -11 -2 -20 3 -20 6 0 12 6 15 13 2 6 4 -3 5 -20 0 -18 -4 -35 -9
-38 -5 -4 -9 1 -9 10 0 24 -37 73 -60 80 -11 4 -20 10 -20 15 0 5 12 2 28 -6
15 -7 33 -14 40 -14z m-178 -21 c-7 -11 -14 -18 -17 -15 -8 8 5 36 17 36 7 0
7 -6 0 -21z m237 -26 c-3 -10 -5 -4 -5 12 0 17 2 24 5 18 2 -7 2 -21 0 -30z
m-156 -47 c-7 -8 -4 -21 9 -41 l20 -30 0 25 1 25 14 -25 c8 -14 14 -19 15 -11
0 22 14 3 18 -25 3 -26 -12 -54 -30 -54 -6 0 -8 6 -5 14 6 14 -16 16 -29 3 -4
-4 -14 -7 -22 -7 -13 0 -12 3 2 19 10 11 14 25 9 36 -5 15 -9 11 -20 -19 -15
-44 -11 -56 17 -49 19 5 29 -11 13 -19 -5 -1 -20 -17 -34 -35 l-27 -32 -5 41
c-3 22 1 61 9 87 18 59 18 58 -5 29 -13 -16 -18 -33 -14 -49 6 -24 6 -24 -13
-5 -11 11 -18 32 -18 48 2 41 3 44 13 29 7 -11 13 -10 35 4 14 10 26 22 26 27
0 6 -7 5 -15 -2 -32 -27 -27 2 6 33 29 27 34 29 37 14 2 -10 -1 -24 -7 -31z
m-316 12 c5 4 5 1 1 -5 -6 -12 5 -18 26 -14 11 1 30 -39 24 -52 -2 -7 -5 -4
-5 6 -1 10 -5 15 -11 12 -5 -3 -10 0 -10 7 -1 9 -4 8 -13 -3 -15 -20 -30 -7
-41 36 -6 24 -5 27 7 17 8 -7 18 -8 22 -4z m194 -12 c12 -14 5 -46 -10 -46 -5
0 -9 7 -9 15 0 8 -5 15 -11 15 -5 0 -7 -6 -3 -12 5 -8 1 -7 -10 1 -17 14 -17
15 0 28 22 16 29 16 43 -1z m-4 -66 c3 -5 1 -10 -4 -10 -6 0 -11 5 -11 10 0 6
2 10 4 10 3 0 8 -4 11 -10z m-515 -26 c0 -8 -4 -12 -10 -9 -5 3 -10 10 -10 16
0 5 5 9 10 9 6 0 10 -7 10 -16z m476 -29 c-7 -38 -26 -39 -26 -1 0 21 19 50
28 41 2 -2 1 -20 -2 -40z m-285 -29 c-7 -9 -7 -16 1 -24 21 -21 2 -23 -22 -2
-21 18 -20 25 3 21 4 0 7 6 7 15 0 8 5 12 10 9 8 -5 8 -11 1 -19z m-225 -13
c-10 -10 -19 5 -10 18 6 11 8 11 12 0 2 -7 1 -15 -2 -18z m1015 -31 c14 -27
15 -39 6 -63 l-12 -30 -10 38 c-5 21 -16 48 -22 60 -17 29 -16 35 5 31 9 -2
24 -18 33 -36z m-697 -7 c-19 -14 -18 -14 4 -15 16 0 22 -6 23 -22 l0 -23 10
23 c14 36 33 21 42 -35 8 -50 8 -50 43 -47 34 2 39 -2 28 -29 -5 -14 -10 -14
-41 -1 -23 10 -49 13 -73 9 -36 -6 -37 -5 -53 37 -10 24 -17 49 -17 56 0 7 -4
12 -8 12 -5 0 -9 7 -9 15 0 9 6 14 14 11 8 -3 16 1 19 9 4 8 13 15 22 15 13 0
12 -3 -4 -15z m985 -27 c20 -1 28 -5 24 -14 -7 -18 -63 -18 -85 0 -21 15 -12
29 14 20 10 -3 31 -6 47 -6z m-636 -35 c-2 -7 1 -13 6 -13 6 0 6 -12 0 -30
-12 -34 -16 -35 -44 -13 -19 15 -19 15 6 9 22 -5 25 -2 24 17 -1 16 -9 23 -28
25 -39 5 -33 24 6 20 19 -2 31 -8 30 -15z m535 -15 c-6 -18 -28 -21 -28 -4 0
9 7 16 16 16 9 0 14 -5 12 -12z m24 -39 c-10 -16 -10 -19 -1 -13 9 5 10 2 6
-10 -5 -14 -3 -17 8 -12 16 6 21 -9 6 -18 -9 -6 -61 35 -61 49 0 4 8 17 17 27
23 25 43 6 25 -23z m-77 -81 c4 -10 3 -27 0 -39 l-7 -21 -15 21 c-8 12 -19 18
-25 15 -6 -4 -17 1 -24 11 -12 16 -11 21 2 36 13 14 20 16 40 7 13 -6 26 -19
29 -30z m-617 -28 c16 -33 26 -62 22 -65 -4 -3 -23 2 -42 10 -36 15 -37 16
-30 95 3 34 18 22 50 -40z m75 18 c-2 -5 -3 -17 -3 -28 0 -30 -38 -26 -50 6
-13 34 -14 32 23 31 17 -1 31 -5 30 -9z m312 2 c3 -5 1 -10 -4 -10 -6 0 -11 5
-11 10 0 6 2 10 4 10 3 0 8 -4 11 -10z m141 -8 c24 -16 31 -46 18 -77 -7 -16
-14 -23 -15 -15 -6 62 -9 75 -19 78 -11 4 -14 22 -2 22 4 0 12 -4 18 -8z
m-636 -17 c0 -8 -4 -15 -9 -15 -5 0 -14 7 -21 15 -10 13 -9 15 9 15 12 0 21
-6 21 -15z m216 -12 c-10 -10 -19 5 -10 18 6 11 8 11 12 0 2 -7 1 -15 -2 -18z
m365 -12 c-12 -10 -21 -23 -20 -27 1 -5 0 -12 -1 -16 -1 -5 -3 -12 -4 -16 0
-5 -9 -16 -18 -26 -15 -15 -18 -15 -18 -2 0 8 5 18 10 21 18 11 12 38 -7 31
-16 -5 -16 -5 -2 6 9 7 14 18 12 23 -4 14 50 44 61 34 6 -5 0 -16 -13 -28z
m-917 -27 c4 -11 15 -15 35 -12 25 4 29 1 29 -21 0 -23 -2 -23 -14 -7 -8 12
-19 16 -33 11 -14 -4 -23 -1 -27 9 -3 9 -13 16 -21 16 -8 0 -11 5 -8 10 10 15
32 12 39 -6z m936 7 c0 -6 -4 -13 -10 -16 -5 -3 -10 1 -10 9 0 9 5 16 10 16 6
0 10 -4 10 -9z m-511 -64 c-10 -17 -16 -34 -13 -38 2 -4 -5 -7 -16 -6 -12 1
-20 8 -20 19 0 10 6 17 13 16 13 -3 14 26 2 56 -8 19 -8 19 22 1 l31 -18 -19
-30z m271 34 c0 -9 -24 -21 -41 -21 -6 0 -7 5 -4 10 4 6 11 8 16 5 5 -4 9 -1
9 4 0 6 5 11 10 11 6 0 10 -4 10 -9z m-663 -63 c-3 -7 -5 -2 -5 12 0 14 2 19
5 13 2 -7 2 -19 0 -25z m132 2 c-16 -11 -29 -4 -29 16 0 12 4 13 21 3 17 -9
19 -13 8 -19z m501 -25 c5 3 10 -1 10 -9 0 -19 -13 -20 -41 -5 -11 5 -17 14
-13 20 4 6 11 6 19 -1 8 -7 19 -9 25 -5z m130 -25 c0 -5 -5 -10 -11 -10 -5 0
-7 5 -4 10 3 6 8 10 11 10 2 0 4 -4 4 -10z m100 -5 c0 -8 7 -15 15 -15 15 0
41 -38 32 -47 -8 -7 -47 16 -47 28 0 6 -4 7 -10 4 -6 -4 -10 5 -10 19 0 14 5
26 10 26 6 0 10 -7 10 -15z m-30 -14 c0 -11 -4 -23 -10 -26 -6 -4 -10 5 -10
19 0 14 5 26 10 26 6 0 10 -9 10 -19z m281 4 c-38 -17 -61 -19 -61 -6 0 9 27
15 80 19 8 1 0 -5 -19 -13z m-797 -19 c-6 -16 -24 -23 -24 -8 0 10 22 33 27
28 2 -2 1 -11 -3 -20z m449 -35 c-9 -33 -23 -24 -23 15 0 31 2 34 14 21 9 -8
12 -24 9 -36z m-488 29 c-3 -5 -11 -10 -16 -10 -6 0 -7 5 -4 10 3 6 11 10 16
10 6 0 7 -4 4 -10z m455 -11 c0 -6 -4 -7 -10 -4 -5 3 -10 11 -10 16 0 6 5 7
10 4 6 -3 10 -11 10 -16z m435 11 c3 -5 2 -10 -4 -10 -5 0 -13 5 -16 10 -3 6
-2 10 4 10 5 0 13 -4 16 -10z m-530 -30 c-14 -27 -35 -41 -35 -23 0 7 41 53
47 53 2 0 -3 -13 -12 -30z m315 20 c0 -5 -7 -10 -15 -10 -8 0 -15 5 -15 10 0
6 7 10 15 10 8 0 15 -4 15 -10z m216 -15 c22 -17 12 -20 -18 -4 -19 10 -20 9
-13 -23 4 -18 11 -38 16 -44 7 -8 -1 -21 -21 -38 -35 -29 -63 -36 -33 -8 10 9
14 14 9 10 -16 -12 -24 -9 -29 10 -3 9 -5 2 -6 -15 -1 -40 -19 -43 -61 -11
-22 16 -29 27 -25 42 6 20 5 20 -8 4 -17 -22 -27 -23 -27 -3 0 8 5 15 10 15 6
0 10 16 10 36 0 36 0 36 18 14 25 -31 70 -33 98 -5 21 21 39 32 55 34 3 1 14
-6 25 -14z m-756 -10 c0 -8 -3 -15 -6 -15 -3 0 -12 7 -20 15 -14 13 -13 15 5
15 12 0 21 -6 21 -15z m415 -15 c2 0 11 3 20 6 13 6 14 9 3 16 -10 8 -10 9 2
5 9 -3 14 -15 13 -32 -2 -30 -17 -45 -44 -45 -21 0 -32 50 -16 69 10 12 12 12
15 -2 2 -10 5 -17 7 -17z m135 5 c0 -9 -6 -12 -15 -9 -8 4 -15 10 -15 15 0 5
7 9 15 9 8 0 15 -7 15 -15z m-683 -32 c-3 -10 -5 -4 -5 12 0 17 2 24 5 18 2
-7 2 -21 0 -30z m413 17 c11 -7 6 -10 -20 -10 -26 0 -31 3 -20 10 8 5 17 10
20 10 3 0 12 -5 20 -10z m-340 -46 c0 -8 6 -14 13 -14 19 0 41 -40 28 -53 -7
-7 -11 -7 -11 -1 0 6 -7 19 -16 30 -14 18 -15 16 -11 -24 7 -57 -10 -43 -18
16 -4 26 -9 56 -12 67 -5 17 -4 18 11 6 9 -7 16 -20 16 -27z m-63 -16 c-3 -8
-6 -5 -6 6 -1 11 2 17 5 13 3 -3 4 -12 1 -19z m133 1 c0 -11 -4 -17 -10 -14
-5 3 -10 13 -10 21 0 8 5 14 10 14 6 0 10 -9 10 -21z m779 -64 c-9 -8 -40 25
-34 35 5 8 12 4 22 -10 8 -12 13 -23 12 -25z m-479 8 c-1 -18 -19 -35 -29 -28
-9 5 -7 11 6 21 21 16 23 16 23 7z m-405 -33 c8 -13 -5 -13 -25 0 -13 8 -13
10 2 10 9 0 20 -4 23 -10z m478 -73 c8 -6 7 -7 -3 -4 -10 2 -15 17 -16 43 -1
37 -1 38 3 4 3 -19 10 -39 16 -43z m256 -10 c6 -8 8 -17 4 -20 -10 -11 -23 -8
-23 6 0 6 -6 24 -14 39 -10 19 -11 29 -2 38 8 8 13 3 17 -19 4 -17 11 -37 18
-44z m-159 49 c0 -2 -8 -10 -17 -17 -16 -13 -17 -12 -4 4 13 16 21 21 21 13z
m-435 -41 c0 -10 -6 -20 -12 -22 -8 -3 -13 5 -13 22 0 17 5 25 13 23 6 -3 12
-13 12 -23z m445 -9 c0 -2 -7 -17 -15 -32 -16 -30 -19 -25 -9 14 5 18 24 33
24 18z m-52 -102 c1 5 9 3 17 -4 13 -10 15 -9 16 11 1 18 3 15 9 -11 5 -19 7
-48 5 -64 -3 -22 -1 -26 8 -17 15 15 37 14 37 -2 0 -22 33 -53 53 -49 22 5 22
-9 -1 -39 -10 -13 -23 -41 -29 -61 -9 -32 -9 -36 6 -31 12 3 11 1 -3 -11 -21
-17 -41 -22 -32 -8 2 4 1 14 -4 22 -5 8 -1 23 12 41 26 35 18 65 -13 49 -11
-6 -27 -9 -35 -6 -7 3 -20 -4 -27 -15 -14 -19 -15 -18 -20 13 -3 18 -15 60
-28 93 -18 47 -23 55 -29 40 -20 -54 -110 -85 -110 -39 0 23 99 93 101 71 1
-7 5 4 9 23 l7 35 8 -34 c7 -28 10 -30 18 -16 6 11 5 21 -2 28 -15 15 -14 45
2 61 10 11 13 4 18 -38 3 -28 6 -47 7 -42z m162 70 c0 -8 -5 -12 -10 -9 -6 4
-8 11 -5 16 9 14 15 11 15 -7z m62 -19 c15 -20 8 -28 -8 -9 -13 16 -15 16 -10
2 4 -13 0 -18 -14 -18 -13 0 -20 7 -20 19 0 14 6 19 23 18 12 0 25 -6 29 -12z
m-292 -11 c0 -14 -3 -14 -15 -4 -8 7 -15 14 -15 16 0 2 7 4 15 4 8 0 15 -7 15
-16z m-75 -4 c3 -5 -1 -10 -9 -10 -9 0 -16 5 -16 10 0 6 4 10 9 10 6 0 13 -4
16 -10z m202 -22 c-3 -8 -6 -5 -6 6 -1 11 2 17 5 13 3 -3 4 -12 1 -19z m65 10
c16 1 17 -2 3 -28 -16 -32 -42 -54 -32 -27 3 9 0 18 -9 21 -8 3 -14 15 -14 27
0 16 4 19 18 14 9 -4 25 -7 34 -7z m-304 -42 c-16 -17 -37 -16 -31 1 3 7 10
10 16 6 7 -4 8 0 3 12 -5 15 -4 16 8 6 12 -10 12 -16 4 -25z m-348 -96 c0 -5
-4 -10 -10 -10 -5 0 -10 5 -10 10 0 6 5 10 10 10 6 0 10 -4 10 -10z m50 0 c0
-5 -10 -10 -22 -9 -22 0 -22 1 -3 9 11 5 21 9 23 9 1 1 2 -3 2 -9z m-30 -30
c0 -5 -2 -10 -4 -10 -3 0 -8 5 -11 10 -3 6 -1 10 4 10 6 0 11 -4 11 -10z m54
4 c13 -5 14 -9 5 -20 -16 -20 -29 -17 -29 6 0 22 1 23 24 14z m-154 -60 c0
-12 -4 -12 -20 -4 -11 6 -18 15 -15 20 8 13 35 0 35 -16z m108 -12 c-6 -7 -17
-11 -24 -8 -7 3 -16 1 -19 -4 -3 -5 -13 -6 -21 -3 -9 3 -20 0 -24 -8 -5 -7
-13 -10 -17 -5 -4 5 -2 11 5 13 6 3 9 10 6 15 -4 6 -2 8 3 5 6 -4 25 -4 41 -1
22 4 29 11 25 21 -5 13 -3 13 15 2 16 -10 18 -16 10 -27z m420 2 c-4 -3 -12 5
-18 18 -12 22 -12 22 6 6 10 -10 15 -20 12 -24z m-548 -54 c0 -5 -2 -10 -4
-10 -3 0 -8 5 -11 10 -3 6 -1 10 4 10 6 0 11 -4 11 -10z m146 -9 c0 -11 -4
-17 -8 -15 -4 3 -8 12 -8 20 0 8 4 14 8 14 4 0 8 -9 8 -19z m184 0 c0 -11 -4
-23 -10 -26 -6 -4 -10 5 -10 19 0 14 5 26 10 26 6 0 10 -9 10 -19z m365 9 c3
-5 1 -10 -4 -10 -6 0 -11 5 -11 10 0 6 2 10 4 10 3 0 8 -4 11 -10z m-70 -30
c3 -5 1 -10 -4 -10 -6 0 -11 5 -11 10 0 6 2 10 4 10 3 0 8 -4 11 -10z m135 -4
c0 -3 -4 -8 -10 -11 -5 -3 -10 -1 -10 4 0 6 5 11 10 11 6 0 10 -2 10 -4z m-50
-46 c17 0 33 -41 21 -53 -8 -8 -11 -8 -11 1 0 7 -12 25 -27 39 -19 18 -22 24
-10 20 10 -4 23 -7 27 -7z m-385 -40 c3 -5 -1 -10 -9 -10 -9 0 -16 5 -16 10 0
6 4 10 9 10 6 0 13 -4 16 -10z m14 -34 c9 -11 6 -14 -17 -18 -44 -6 -59 2 -31
18 31 17 34 17 48 0z m396 -16 c3 -5 1 -10 -4 -10 -6 0 -11 5 -11 10 0 6 2 10
4 10 3 0 8 -4 11 -10z m-329 -46 c4 -14 2 -30 -5 -37 -14 -14 -19 -8 -27 31
-5 25 -3 32 10 32 8 0 18 -11 22 -26z m-62 7 c7 -11 -34 -22 -48 -14 -5 4 -1
10 10 14 26 10 32 10 38 0z m206 -108 c0 -49 -13 -83 -23 -66 -9 14 4 113 14
113 5 0 9 -21 9 -47z m-380 21 c0 -2 -12 -4 -26 -4 -14 0 -23 4 -20 9 6 8 46
4 46 -5z m308 -46 c0 -13 3 -51 7 -84 5 -42 4 -63 -4 -68 -7 -5 -11 2 -11 17
0 14 -7 30 -15 37 -26 21 -27 48 -3 84 13 20 24 36 24 36 1 0 2 -10 2 -22z
m376 -36 c3 -5 -1 -9 -9 -9 -8 0 -15 4 -15 9 0 4 4 8 9 8 6 0 12 -4 15 -8z
m-284 -32 c0 -13 -5 -18 -15 -14 -16 7 -19 17 -8 27 12 13 23 7 23 -13z m-196
-35 c-4 -9 -19 -15 -38 -15 l-31 1 25 14 c33 19 51 19 44 0z m-294 -21 c0 -8
-5 -12 -10 -9 -6 4 -8 11 -5 16 9 14 15 11 15 -7z m330 -134 c0 -34 -14 -39
-29 -12 -7 13 -6 23 1 30 19 19 28 14 28 -18z m75 -79 c3 -5 1 -12 -5 -16 -5
-3 -10 1 -10 9 0 18 6 21 15 7z m15 -46 c0 -12 -19 -12 -23 0 -4 9 -1 12 9 8
7 -3 14 -7 14 -8z m40 -136 c0 -10 -4 -19 -10 -19 -5 0 -11 -10 -11 -22 -1
-18 -2 -19 -6 -5 -3 10 0 24 7 32 8 9 8 15 0 20 -6 3 -8 11 -4 16 8 14 24 0
24 -22z"/>
<path d="M1080 4610 c0 -5 5 -10 10 -10 6 0 10 5 10 10 0 6 -4 10 -10 10 -5 0
-10 -4 -10 -10z"/>
<path d="M2090 5186 c9 -11 9 -19 0 -33 -11 -17 -11 -17 -6 0 3 10 2 16 -3 12
-5 -3 -11 -1 -13 4 -1 5 -12 -3 -22 -17 l-20 -27 22 19 c36 32 25 2 -15 -37
-20 -20 -33 -37 -29 -37 13 0 51 23 64 39 11 14 11 13 2 -6 -10 -22 -7 -27 13
-24 20 3 -47 -69 -77 -83 -37 -17 -67 -66 -40 -66 23 0 96 39 127 68 15 14 27
20 27 13 0 -7 5 -9 10 -6 13 8 13 45 1 45 -5 0 -6 12 -2 28 10 36 62 62 191
91 40 9 37 10 -25 4 -104 -9 -175 -5 -192 12 -19 19 -29 19 -13 1z"/>
<path d="M2009 5029 c-19 -16 -20 -18 -4 -10 34 17 51 31 39 31 -7 0 -22 -9
-35 -21z"/>
<path d="M2200 4916 c0 -2 7 -6 15 -10 8 -3 15 -1 15 4 0 6 -7 10 -15 10 -8 0
-15 -2 -15 -4z"/>
<path d="M2315 4560 c-16 -17 -16 -20 -3 -15 9 4 19 13 22 21 7 19 2 18 -19
-6z"/>
<path d="M1060 4378 c0 -9 5 -20 10 -23 13 -8 13 5 0 25 -8 13 -10 13 -10 -2z"/>
<path d="M942 4234 c-24 -28 -42 -104 -23 -104 6 0 14 12 17 28 4 15 15 44 26
65 21 43 13 48 -20 11z"/>
<path d="M1362 3725 c0 -16 2 -22 5 -12 2 9 2 23 0 30 -3 6 -5 -1 -5 -18z"/>
<path d="M1104 3496 c-17 -8 -33 -20 -36 -27 -8 -21 10 -61 23 -53 7 4 9 3 6
-3 -8 -12 30 -49 40 -40 3 4 1 7 -5 7 -6 0 -9 7 -6 15 4 8 1 15 -6 15 -6 0 -8
5 -5 10 3 6 -1 10 -9 10 -9 0 -16 5 -16 10 0 11 26 15 88 11 42 -3 49 3 34 26
-7 11 -55 33 -70 33 -4 -1 -21 -7 -38 -14z"/>
<path d="M1351 3464 c-7 -8 -11 -17 -8 -20 8 -9 37 8 37 22 0 18 -11 17 -29
-2z"/>
<path d="M2370 3406 c0 -9 5 -16 10 -16 6 0 10 4 10 9 0 6 -4 13 -10 16 -5 3
-10 -1 -10 -9z"/>
<path d="M1255 3400 c3 -5 8 -10 11 -10 2 0 4 5 4 10 0 6 -5 10 -11 10 -5 0
-7 -4 -4 -10z"/>
<path d="M1197 3377 c-30 -8 -37 -15 -34 -29 3 -11 -2 -22 -14 -28 -13 -7 -19
-21 -19 -42 l0 -32 23 30 c12 16 32 41 45 54 64 69 64 65 -1 47z"/>
<path d="M1329 3358 c-6 -42 -1 -44 76 -29 31 6 36 10 22 16 -10 4 -33 5 -52
2 -31 -5 -34 -3 -37 21 -3 23 -4 21 -9 -10z"/>
<path d="M2320 3380 c20 -13 43 -13 35 0 -3 6 -16 10 -28 10 -18 0 -19 -2 -7
-10z"/>
<path d="M2161 3291 c-8 -5 -9 -11 -3 -15 5 -3 12 1 16 9 6 17 6 18 -13 6z"/>
<path d="M1322 3255 c0 -16 2 -22 5 -12 2 9 2 23 0 30 -3 6 -5 -1 -5 -18z"/>
<path d="M1189 3233 c-13 -15 -16 -21 -6 -14 9 7 17 10 17 5 0 -5 6 -2 13 7 7
9 19 18 27 22 11 4 9 6 -6 6 -11 1 -31 -11 -45 -26z"/>
<path d="M1286 3212 c-7 -12 5 -52 15 -52 5 0 9 5 9 11 0 5 4 8 9 5 5 -4 7 4
3 16 -4 16 -2 19 8 13 9 -5 11 -4 6 3 -8 14 -42 16 -50 4z"/>
<path d="M1190 3201 c-8 -6 -17 -8 -21 -5 -7 4 -32 -56 -26 -63 2 -1 12 4 23
13 10 8 12 12 4 8 -8 -4 -2 7 14 24 30 33 32 39 6 23z"/>
<path d="M1190 3090 c-6 -11 -7 -26 -3 -33 4 -6 6 -21 5 -32 -1 -11 5 -4 13
15 10 21 12 36 6 38 -5 2 -7 10 -4 18 8 21 -5 17 -17 -6z"/>
<path d="M1100 3035 c-13 -14 -22 -26 -19 -28 2 -1 16 10 31 25 15 15 23 28
19 28 -4 0 -18 -11 -31 -25z"/>
<path d="M1267 2980 c-3 -11 -1 -20 4 -20 5 0 9 9 9 20 0 11 -2 20 -4 20 -2 0
-6 -9 -9 -20z"/>
<path d="M1420 2970 c0 -11 4 -20 9 -20 5 0 7 9 4 20 -3 11 -7 20 -9 20 -2 0
-4 -9 -4 -20z"/>
<path d="M1090 2950 c-13 -8 -12 -10 3 -10 9 0 17 5 17 10 0 12 -1 12 -20 0z"/>
<path d="M1318 2858 c10 -13 10 -17 0 -21 -9 -4 -7 -6 4 -6 27 -1 31 17 6 30
-20 11 -22 11 -10 -3z"/>
<path d="M2100 2785 c0 -8 4 -15 10 -15 5 0 7 7 4 15 -4 8 -8 15 -10 15 -2 0
-4 -7 -4 -15z"/>
<path d="M2120 2756 c0 -2 8 -10 18 -17 15 -13 16 -12 3 4 -13 16 -21 21 -21
13z"/>
<path d="M2368 2713 c7 -3 16 -2 19 1 4 3 -2 6 -13 5 -11 0 -14 -3 -6 -6z"/>
<path d="M2161 2606 c-12 -14 -12 -16 0 -11 10 4 15 -1 15 -15 0 -13 -5 -19
-13 -16 -9 4 -13 -3 -13 -20 0 -34 21 -114 30 -114 14 0 89 60 99 79 18 32 13
60 -14 77 -20 13 -28 14 -40 4 -12 -10 -18 -8 -33 10 -16 20 -19 21 -31 6z"/>
<path d="M1558 2534 c-11 -21 -17 -54 -17 -82 2 -32 3 -38 6 -17 2 17 11 52
20 78 18 58 14 67 -9 21z"/>
<path d="M1354 2546 c-6 -6 -9 -17 -6 -24 2 -6 -4 -15 -13 -18 -9 -4 -28 -18
-41 -31 -25 -25 -22 -29 32 -35 24 -3 30 -1 27 12 -2 8 0 35 6 60 11 50 11 53
-5 36z"/>
<path d="M1607 2526 c-4 -9 -2 -16 3 -16 6 0 10 -17 10 -38 0 -40 -31 -82 -61
-82 -11 0 -11 -2 -1 -9 10 -6 10 -10 -3 -21 -13 -11 -15 -9 -16 11 -1 34 -6
13 -14 -53 -6 -52 -9 -57 -32 -60 -38 -4 -38 -19 2 -62 42 -46 43 -59 10 -91
-13 -14 -20 -25 -15 -25 6 0 10 -9 10 -20 0 -16 7 -20 30 -20 18 0 30 5 30 13
0 8 14 12 38 12 l38 0 -4 -55 c-5 -62 3 -66 10 -5 3 22 17 63 31 92 15 29 27
59 27 68 0 8 5 15 12 15 6 0 8 3 5 7 -4 3 -2 12 4 19 5 6 14 26 19 44 8 29 7
31 -13 24 -19 -6 -20 -5 -9 8 15 19 6 75 -14 82 -8 3 -14 15 -14 27 0 12 -3
20 -6 17 -12 -13 -55 45 -53 71 2 14 -2 34 -7 45 -10 16 -12 16 -17 2z m69
-163 c-10 -10 -19 5 -10 18 6 11 8 11 12 0 2 -7 1 -15 -2 -18z m-66 -33 c0 -5
-2 -10 -4 -10 -3 0 -8 5 -11 10 -3 6 -1 10 4 10 6 0 11 -4 11 -10z m-73 -62
c-3 -8 -6 -5 -6 6 -1 11 2 17 5 13 3 -3 4 -12 1 -19z m33 -18 c0 -5 -5 -10
-11 -10 -5 0 -7 5 -4 10 3 6 8 10 11 10 2 0 4 -4 4 -10z m83 -35 c-3 -9 -8
-14 -10 -11 -3 3 -2 9 2 15 9 16 15 13 8 -4z"/>
<path d="M1925 2520 c-19 -8 -19 -9 3 -9 12 -1 22 4 22 9 0 6 -1 10 -2 9 -2 0
-12 -4 -23 -9z"/>
<path d="M2121 2444 c0 -11 3 -14 6 -6 3 7 2 16 -1 19 -3 4 -6 -2 -5 -13z"/>
<path d="M1736 2442 c-3 -5 -1 -14 3 -20 6 -10 10 -10 20 1 9 12 8 16 -3 20
-9 4 -17 3 -20 -1z"/>
<path d="M1566 2425 c-9 -26 -7 -32 5 -12 6 10 9 21 6 23 -2 3 -7 -2 -11 -11z"/>
<path d="M1830 2395 c0 -27 3 -45 7 -42 7 8 6 77 -2 85 -3 3 -5 -16 -5 -43z"/>
<path d="M2090 2429 c0 -5 5 -7 10 -4 6 3 10 8 10 11 0 2 -4 4 -10 4 -5 0 -10
-5 -10 -11z"/>
<path d="M1801 2414 c0 -11 3 -14 6 -6 3 7 2 16 -1 19 -3 4 -6 -2 -5 -13z"/>
<path d="M1805 2350 c-4 -12 -5 -24 -2 -27 3 -2 8 5 12 17 4 12 5 24 2 27 -3
2 -8 -5 -12 -17z"/>
<path d="M2032 2335 c0 -16 2 -22 5 -12 2 9 2 23 0 30 -3 6 -5 -1 -5 -18z"/>
<path d="M2110 2304 c0 -8 5 -12 10 -9 6 4 8 11 5 16 -9 14 -15 11 -15 -7z"/>
<path d="M2055 2229 c11 -13 24 -27 29 -31 5 -3 9 -26 10 -51 1 -25 4 -40 7
-35 4 7 16 3 30 -11 12 -11 26 -21 31 -21 15 0 8 50 -7 56 -8 4 -15 13 -15 21
0 8 -7 21 -15 29 -8 9 -15 12 -15 7 0 -4 -7 3 -16 15 -8 12 -25 27 -37 33
l-22 12 20 -24z"/>
<path d="M1443 2212 c-23 -15 -20 -72 7 -103 l19 -24 -4 23 c-2 13 -7 33 -10
45 -5 16 -4 18 3 8 15 -21 24 3 12 33 -11 29 -10 29 -27 18z"/>
<path d="M1834 2065 c0 -55 1 -76 3 -47 2 29 2 74 0 100 -2 26 -3 2 -3 -53z"/>
<path d="M1254 2069 c4 -13 8 -29 9 -35 6 -27 30 -43 58 -40 36 4 34 -15 -2
-25 -21 -6 -21 -7 9 -8 25 -1 32 3 32 18 0 11 5 23 10 26 6 3 10 -2 10 -12 0
-15 2 -16 10 -3 15 23 12 36 -12 65 -18 19 -36 27 -77 32 -54 6 -54 6 -47 -18z
m51 1 c4 -6 10 -8 14 -6 4 3 8 -1 8 -9 0 -18 0 -18 -32 -3 -14 6 -25 15 -25
20 0 11 28 10 35 -2z"/>
<path d="M1739 2054 c-5 -15 -7 -29 -4 -32 3 -3 5 0 5 7 0 7 5 9 11 5 8 -4 9
1 4 16 -5 15 -3 20 3 16 6 -3 13 -2 17 4 3 5 -1 10 -10 10 -8 0 -20 -12 -26
-26z"/>
<path d="M2042 2050 c0 -14 2 -19 5 -12 2 6 2 18 0 25 -3 6 -5 1 -5 -13z"/>
<path d="M1436 2045 c-3 -9 -6 -24 -5 -33 0 -9 5 -4 10 12 9 32 6 48 -5 21z"/>
<path d="M1178 2038 c-19 -16 -30 -57 -14 -54 22 3 36 18 36 38 0 17 2 18 15
8 13 -11 14 -10 9 4 -7 19 -24 21 -46 4z"/>
<path d="M2081 2024 c0 -11 3 -14 6 -6 3 7 2 16 -1 19 -3 4 -6 -2 -5 -13z"/>
<path d="M1991 2014 c0 -11 3 -14 6 -6 3 7 2 16 -1 19 -3 4 -6 -2 -5 -13z"/>
<path d="M2012 1990 c0 -14 2 -19 5 -12 2 6 2 18 0 25 -3 6 -5 1 -5 -13z"/>
<path d="M1766 1948 c-4 -19 -2 -34 4 -36 7 -3 6 -10 0 -23 -12 -21 -69 -24
-71 -4 -1 5 -5 -15 -9 -45 -5 -30 -4 -60 0 -65 5 -6 7 -21 3 -33 -4 -15 -1
-22 9 -22 11 0 14 7 11 24 -7 33 15 43 26 13 6 -14 15 -28 20 -32 8 -4 6 -11
-4 -21 -16 -17 -12 -28 24 -74 l21 -25 0 23 c0 13 -4 20 -10 17 -5 -3 -10 -1
-10 5 0 7 7 10 15 6 8 -3 21 2 30 10 14 14 15 3 15 -113 -1 -124 15 -222 39
-246 19 -19 44 1 39 33 -4 25 -1 29 21 32 15 2 30 12 35 24 5 11 24 30 43 43
27 17 34 28 31 49 -3 24 -7 27 -38 27 -31 0 -35 3 -32 23 4 30 -14 52 -44 52
-18 0 -32 -12 -54 -47 l-30 -48 1 105 c0 58 4 110 9 115 29 38 36 135 8 107
-18 -18 -23 -15 -25 16 -3 39 5 61 16 43 7 -10 11 -8 16 9 10 32 -18 59 -45
42 -27 -16 -35 -15 -20 3 16 19 6 45 -18 45 -14 0 -21 -9 -26 -32z m64 -98 c0
-19 -19 -40 -37 -40 -17 0 -17 47 0 53 24 8 37 3 37 -13z m-86 -25 c-4 -8 -8
-15 -10 -15 -2 0 -4 7 -4 15 0 8 4 15 10 15 5 0 7 -7 4 -15z"/>
<path d="M2044 1966 c-8 -9 -7 -15 2 -24 18 -16 19 -15 21 8 2 24 -8 32 -23
16z"/>
<path d="M1246 1955 c4 -8 8 -15 10 -15 2 0 4 7 4 15 0 8 -4 15 -10 15 -5 0
-7 -7 -4 -15z"/>
<path d="M1366 1955 c-9 -26 -7 -32 5 -12 6 10 9 21 6 23 -2 3 -7 -2 -11 -11z"/>
<path d="M1165 1910 c-19 -8 -19 -9 3 -9 12 -1 22 4 22 9 0 6 -1 10 -2 9 -2 0
-12 -4 -23 -9z"/>
<path d="M1400 1894 c-19 -49 -10 -55 42 -28 30 15 32 15 45 -2 7 -10 13 -13
13 -6 0 12 -35 38 -59 44 -8 2 -18 -8 -22 -22 -7 -21 -8 -20 -4 8 5 38 -2 42
-15 6z"/>
<path d="M2096 1905 c-10 -11 -17 -12 -22 -4 -5 8 -10 7 -16 -5 -5 -9 -15 -16
-21 -16 -8 0 -13 -19 -15 -52 l-2 -53 20 33 c11 18 20 36 20 41 0 13 25 20 40
11 7 -5 9 -13 4 -21 -4 -7 -8 -24 -9 -38 0 -13 -6 -26 -13 -29 -7 -2 -20 -11
-29 -20 -15 -16 -16 -15 -11 6 3 12 2 20 -3 16 -5 -3 -9 -15 -9 -28 0 -19 5
-22 41 -22 31 1 46 7 60 25 15 18 17 26 7 32 -9 6 -9 13 1 33 17 31 31 25 31
-15 0 -17 4 -28 10 -24 5 3 7 20 3 36 -4 20 -1 34 7 39 9 6 6 10 -10 15 -14 4
-25 3 -30 -5 -4 -7 -13 -9 -20 -5 -9 6 -9 9 1 16 11 7 10 9 -4 9 -14 0 -17 5
-12 20 8 24 2 25 -19 5z"/>
<path d="M1622 1800 c0 -19 2 -27 5 -17 2 9 2 25 0 35 -3 9 -5 1 -5 -18z"/>
<path d="M1340 1789 c0 -5 -5 -7 -11 -3 -6 3 -15 0 -20 -7 -11 -18 7 -29 47
-29 20 0 34 6 38 16 3 8 2 12 -4 9 -6 -3 -10 -2 -10 4 0 5 8 12 18 14 9 3 0 5
-20 6 -21 0 -38 -4 -38 -10z"/>
<path d="M1429 1777 c6 -8 8 -17 4 -20 -3 -4 -1 -7 5 -7 22 0 12 -15 -20 -35
-18 -10 -27 -20 -20 -23 7 -2 9 -8 6 -14 -14 -22 35 13 60 43 l27 32 -28 18
c-33 22 -50 25 -34 6z"/>
<path d="M1948 1752 c-17 -7 -16 -8 2 -19 16 -11 18 -10 14 1 -3 8 2 16 13 19
11 3 12 5 3 5 -8 0 -23 -3 -32 -6z"/>
<path d="M2170 1750 c-7 -5 -15 -26 -16 -47 -3 -36 -2 -37 12 -18 15 19 15 19
9 -7 -4 -14 -2 -36 5 -48 15 -28 36 -12 51 41 10 30 9 42 -1 54 -20 24 -45 35
-60 25z"/>
<path d="M1615 1665 c1 -25 4 -47 7 -50 3 -3 5 14 4 39 0 24 -4 47 -7 50 -3 4
-5 -14 -4 -39z"/>
<path d="M1532 1655 c0 -16 2 -22 5 -12 2 9 2 23 0 30 -3 6 -5 -1 -5 -18z"/>
<path d="M1348 1663 c6 -2 18 -2 25 0 6 3 1 5 -13 5 -14 0 -19 -2 -12 -5z"/>
<path d="M2120 1650 c0 -8 5 -22 10 -30 9 -13 10 -13 10 0 0 8 -5 22 -10 30
-9 13 -10 13 -10 0z"/>
<path d="M1694 1598 c-34 -75 -20 -182 20 -149 11 9 15 9 18 0 7 -21 37 -2 44
27 11 45 -30 162 -57 164 -3 0 -15 -19 -25 -42z"/>
<path d="M1249 1573 c-12 -16 -12 -17 1 -7 8 6 22 14 30 17 13 5 12 6 -1 6 -9
1 -23 -7 -30 -16z"/>
<path d="M1287 1553 c-4 -3 -7 -18 -7 -32 l1 -26 14 25 c8 14 14 28 15 33 0 9
-14 9 -23 0z"/>
<path d="M1227 1530 c-4 -14 -6 -36 -6 -50 1 -18 4 -14 10 14 10 44 6 75 -4
36z"/>
<path d="M2283 1538 c-14 -7 -23 -20 -23 -34 0 -34 20 -40 21 -7 l0 28 11 -25
c7 -17 12 -20 15 -11 5 11 7 11 14 0 5 -8 9 -9 9 -3 0 6 -7 17 -15 24 -22 18
-18 28 13 33 25 4 25 4 2 5 -14 0 -35 -4 -47 -10z"/>
<path d="M1460 1518 c-21 -9 -22 -12 -7 -15 9 -3 14 -9 11 -15 -4 -7 -2 -8 4
-4 7 4 12 13 12 21 0 7 6 16 13 18 6 3 8 5 2 6 -5 0 -21 -5 -35 -11z"/>
<path d="M2165 1510 c9 -30 13 -35 21 -27 3 3 -2 16 -11 29 l-17 23 7 -25z"/>
<path d="M2090 1481 c-5 -11 -10 -40 -10 -65 l0 -45 50 29 c28 17 60 38 71 49
20 18 20 18 -6 16 -17 -2 -29 3 -35 16 -14 25 -56 25 -70 0z m40 -41 c-8 -5
-17 -7 -19 -4 -3 3 1 9 9 14 8 5 17 7 19 4 3 -3 -1 -9 -9 -14z"/>
<path d="M1253 1466 c-26 -27 -28 -43 -9 -69 14 -18 14 -18 20 0 8 29 19 93
15 93 -2 0 -14 -11 -26 -24z"/>
<path d="M2352 1444 c-14 -22 -27 -32 -35 -27 -25 15 -33 10 -29 -18 2 -16 9
-32 15 -36 5 -3 7 -1 3 5 -3 6 4 19 17 29 25 20 62 71 56 78 -2 2 -14 -12 -27
-31z"/>
<path d="M1625 1420 c3 -5 8 -10 11 -10 2 0 4 5 4 10 0 6 -5 10 -11 10 -5 0
-7 -4 -4 -10z"/>
<path d="M1632 1365 c0 -16 2 -22 5 -12 2 9 2 23 0 30 -3 6 -5 -1 -5 -18z"/>
<path d="M2190 1370 c0 -5 5 -10 10 -10 6 0 10 5 10 10 0 6 -4 10 -10 10 -5 0
-10 -4 -10 -10z"/>
<path d="M2335 1340 c10 -11 20 -20 22 -20 1 0 3 9 3 20 0 14 -7 20 -22 20
-20 0 -21 -1 -3 -20z"/>
<path d="M1785 1238 c-21 -50 -39 -77 -60 -89 -16 -10 -30 -17 -31 -16 -8 7
16 79 31 94 17 16 17 16 11 -5 -4 -13 -3 -22 3 -22 5 0 15 17 20 37 12 42 1
64 -23 44 -11 -10 -19 -9 -36 1 -19 11 -24 10 -41 -11 -23 -28 -25 -43 -4 -35
11 4 13 2 9 -9 -11 -30 -31 -27 -32 5 -1 43 -12 48 -12 6 0 -20 7 -41 15 -48
12 -10 12 -15 -5 -33 -11 -11 -20 -26 -20 -32 0 -16 31 -50 53 -58 15 -6 16
-4 7 13 -7 14 -7 20 0 20 5 0 10 -4 10 -10 0 -5 6 -9 13 -7 6 1 11 -5 11 -14
-1 -11 6 -15 25 -14 38 3 41 4 41 16 0 5 -4 7 -10 4 -5 -3 -10 0 -10 9 0 8 5
16 10 18 6 2 13 27 15 56 3 28 14 70 25 93 12 22 20 45 18 50 -2 5 -16 -23
-33 -63z m-102 -76 c-3 -12 -12 -22 -19 -22 -18 0 -18 9 3 32 20 22 24 19 16
-10z m57 -30 c0 -10 -22 -32 -32 -32 -5 0 -3 9 4 20 13 20 28 27 28 12z"/>
<path d="M1840 1163 c0 -6 6 -16 14 -23 8 -6 12 -18 10 -25 -5 -11 -1 -12 20
-2 22 10 23 13 8 21 -9 5 -25 16 -34 24 -10 8 -18 10 -18 5z"/>
<path d="M1772 990 c0 -14 2 -19 5 -12 2 6 2 18 0 25 -3 6 -5 1 -5 -13z"/>
<path d="M1782 900 c0 -14 2 -19 5 -12 2 6 2 18 0 25 -3 6 -5 1 -5 -13z"/>
<path d="M1818 879 c-21 -11 -16 -59 14 -139 25 -64 37 -82 40 -55 0 11 2 25
2 32 1 7 6 17 13 24 8 8 14 5 23 -12 10 -19 10 -24 -4 -34 -14 -11 -14 -14 -1
-25 8 -7 12 -17 9 -22 -9 -14 37 1 58 19 25 22 33 82 13 102 -15 15 -18 14
-41 -14 l-24 -30 0 28 c0 16 4 26 9 22 17 -10 41 26 41 60 0 46 -48 60 -64 18
-6 -14 -9 -13 -29 4 -32 29 -41 32 -59 22z"/>
<path d="M1751 846 c-18 -19 -21 -28 -12 -44 6 -11 9 -21 6 -23 -9 -10 34 -52
47 -46 13 4 13 15 4 65 -6 33 -14 63 -17 66 -3 3 -16 -5 -28 -18z"/>
<path d="M1841 615 c0 -11 4 -27 9 -35 9 -13 10 -13 9 0 0 8 -4 24 -9 35 l-9
20 0 -20z"/>
<path d="M2004 452 c13 -21 -3 -32 -30 -20 -20 10 -27 8 -39 -8 -8 -10 -12
-25 -10 -32 3 -7 1 -10 -4 -7 -11 6 -43 -34 -36 -45 3 -4 21 -11 40 -14 21 -4
50 -22 73 -44 25 -26 27 -27 8 -5 -32 36 -31 42 17 58 25 9 37 8 55 -3 19 -13
22 -12 22 2 0 9 -7 16 -15 16 -9 0 -14 8 -12 22 3 34 -46 43 -75 12 -13 -13
-30 -24 -38 -24 -12 1 -11 3 3 11 9 5 17 20 18 32 0 12 3 16 6 10 3 -10 8 -10
19 1 17 18 18 32 2 42 -7 4 -8 3 -4 -4z m56 -80 c0 -4 -8 -12 -18 -18 -15 -10
-18 -8 -19 7 -1 13 5 19 18 19 10 0 19 -3 19 -8z"/>
<path d="M2122 346 c1 -14 8 -26 15 -26 17 0 16 18 -2 36 -13 14 -15 12 -13
-10z"/>
</g>
</svg>
